<?xml version="1.0" standalone="no"?>
<!DOCTYPE svg PUBLIC "-//W3C//DTD SVG 1.1//EN" "http://www.w3.org/Graphics/SVG/1.1/DTD/svg11.dtd" >
<svg xmlns="http://www.w3.org/2000/svg" xmlns:xlink="http://www.w3.org/1999/xlink" version="1.1">
<metadata>
Created by FontForge 20150102 at Sun Jan 25 14:29:03 2015
 By uniteet7
Copyright 1993 Greg Thompson. Agenda is a Trademark of Greg Thompson. Produced by The Font Bureau, Inc.
</metadata>
<defs>
<font id="AgendaMedium" horiz-adv-x="400" >
  <font-face 
    font-family="AgendaMedium"
    font-weight="500"
    font-stretch="normal"
    units-per-em="1000"
    panose-1="2 0 6 3 5 0 0 2 0 4"
    ascent="800"
    descent="-200"
    x-height="453"
    cap-height="638"
    bbox="-82 -236 1021 930"
    underline-thickness="50"
    underline-position="-75"
    unicode-range="U+0020-FB02"
  />
<missing-glyph horiz-adv-x="500" 
 />
    <glyph glyph-name=".notdef" horiz-adv-x="500" 
 />
    <glyph glyph-name=".null" horiz-adv-x="0" 
 />
    <glyph glyph-name="nonmarkingreturn" horiz-adv-x="230" 
 />
    <glyph glyph-name="space" unicode=" " horiz-adv-x="230" 
 />
    <glyph glyph-name="exclam" unicode="!" horiz-adv-x="267" 
d="M187 682h-107l16 -502l75 -17zM198 50q0 7 -6.5 17.5t-16.5 20t-20.5 16t-17.5 6.5q-8 0 -18 -6.5t-20 -16t-16.5 -20t-6.5 -17.5q0 -8 6.5 -18t16.5 -20t20 -16.5t18 -6.5q7 0 17.5 6.5t20.5 16.5t16.5 20t6.5 18z" />
    <glyph glyph-name="quotedbl" unicode="&#x22;" horiz-adv-x="313" 
d="M274 712h-81l16 -229h48zM120 712h-81l15 -229h48z" />
    <glyph glyph-name="numbersign" unicode="#" horiz-adv-x="431" 
d="M403 379v58h-47l46 201h-65l-46 -201h-95l46 201h-65l-46 -201h-79v-58h65l-28 -120h-62v-58h48l-46 -201h65l46 201h95l-46 -201h65l46 201h78v58h-64l28 120h61zM277 379l-28 -120h-95l28 120h95z" />
    <glyph glyph-name="dollar" unicode="$" horiz-adv-x="468" 
d="M424 178q0 36 -14 66.5t-38.5 55.5t-59 45t-75.5 36q-51 20 -78.5 44.5t-27.5 57.5q0 18 7.5 34t21.5 28t33.5 19.5t44.5 7.5q37 0 68.5 -9.5t58.5 -24.5l18 78q-25 14 -55 23.5t-75 11.5v86h-57v-89q-74 -13 -114 -60t-40 -113q0 -64 48 -111t129 -76q56 -20 85.5 -50
t29.5 -68q0 -21 -8.5 -39.5t-24.5 -32.5t-39 -22t-53 -8q-48 0 -86 16t-64 36l-20 -83q29 -20 67.5 -33.5t89.5 -15.5v-85h57v88q43 5 75.5 22t53.5 42.5t31.5 57t10.5 65.5z" />
    <glyph glyph-name="percent" unicode="%" horiz-adv-x="696" 
d="M321 508q0 31 -11 57.5t-30 45.5t-45 29.5t-57 10.5q-30 0 -56 -10.5t-45 -29.5t-30 -45.5t-11 -57.5q0 -32 11 -58.5t30 -45.5t45 -29.5t56 -10.5q31 0 57 10.5t45 29.5t30 45.5t11 58.5zM632 626l-44 37l-525 -650l44 -37zM660 132q0 31 -11 57.5t-30 45.5t-45 29.5
t-56 10.5q-31 0 -57 -10.5t-45 -29.5t-30 -45.5t-11 -57.5q0 -32 11 -58.5t30 -45.5t45 -29.5t57 -10.5q30 0 56 10.5t45 29.5t30 45.5t11 58.5zM247 508q0 -35 -20.5 -55t-48.5 -20q-29 0 -48.5 20t-19.5 55q0 34 19.5 53.5t48.5 19.5q28 0 48.5 -19.5t20.5 -53.5zM586 132
q0 -35 -20 -55.5t-48 -20.5q-29 0 -49 20.5t-20 55.5q0 34 20 53t49 19q28 0 48 -19t20 -53z" />
    <glyph glyph-name="ampersand" unicode="&#x26;" horiz-adv-x="604" 
d="M618 0l-121 121q26 35 43 70.5t26 62.5l-61 62q-11 -32 -28 -67.5t-40 -67.5l-139 139q24 12 46 30t39.5 39.5t27.5 47t10 53.5q0 37 -15.5 66.5t-40 50.5t-56 32.5t-63.5 11.5q-31 0 -61 -11.5t-53.5 -32.5t-38 -50.5t-14.5 -66.5q0 -40 22 -80t57 -73
q-56 -29 -87.5 -71t-31.5 -106q0 -35 15 -66t42 -54.5t64 -37.5t82 -14q63 0 111 19.5t85 49.5l57 -57h123zM334 489q0 -28 -25 -57.5t-70 -52.5q-34 33 -53.5 58.5t-19.5 51.5q0 15 6 30t17 27t25.5 19.5t31.5 7.5q18 0 34 -7.5t28 -19.5t19 -27t7 -30zM378 117
q-29 -23 -61.5 -36.5t-69.5 -13.5q-24 0 -45 7.5t-37 21t-25 31.5t-9 38q0 40 21 65.5t65 47.5z" />
    <glyph glyph-name="quotesingle" unicode="'" horiz-adv-x="159" 
d="M120 712h-81l15 -229h48z" />
    <glyph glyph-name="parenleft" unicode="(" horiz-adv-x="270" 
d="M246 691l-91 20q-53 -99 -83 -212.5t-30 -257.5q0 -74 7.5 -135.5t21.5 -115.5t33.5 -102t42.5 -94l94 -21q-28 57 -49 113t-34.5 113.5t-20 117.5t-6.5 125q0 126 32 241.5t83 207.5z" />
    <glyph glyph-name="parenright" unicode=")" horiz-adv-x="270" 
d="M228 241q0 73 -7.5 135t-21.5 116t-33.5 102t-42.5 94l-94 22q28 -58 48.5 -114t34 -113t20.5 -117t7 -126q0 -125 -32 -240.5t-83 -207.5l90 -21q53 99 83.5 213t30.5 257z" />
    <glyph glyph-name="asterisk" unicode="*" horiz-adv-x="416" 
d="M402 517l-44 73l-119 -50l10 148l-83 -19l8 -129l-135 54l-9 -82l125 -32l-93 -114l76 -35l69 109l80 -123l56 62l-83 101z" />
    <glyph glyph-name="plus" unicode="+" horiz-adv-x="454" 
d="M414 238v78h-144v137h-85v-137h-145v-78h145v-137h85v137h144z" />
    <glyph glyph-name="comma" unicode="," horiz-adv-x="197" 
d="M159 50q0 9 -7 19.5t-17 19.5t-20.5 15t-16.5 6q-7 0 -17.5 -6.5t-20 -15.5t-16.5 -19.5t-7 -18.5q0 -6 5 -14t12.5 -15t16 -12.5t15.5 -6.5q-4 -23 -21 -57.5t-44 -69.5l35 -6q18 16 36 41t33 51t24.5 50t9.5 39z" />
    <glyph glyph-name="hyphen" unicode="-" horiz-adv-x="330" 
d="M290 238v78h-250v-78h250z" />
    <glyph glyph-name="period" unicode="." horiz-adv-x="197" 
d="M159 50q0 7 -6.5 17.5t-16.5 20t-20.5 16t-17.5 6.5q-8 0 -18 -6.5t-20 -16t-16.5 -20t-6.5 -17.5q0 -8 6.5 -18t16.5 -20t20 -16.5t18 -6.5q7 0 17.5 6.5t20.5 16.5t16.5 20t6.5 18z" />
    <glyph glyph-name="slash" unicode="/" horiz-adv-x="617" 
d="M599 627l-58 48l-523 -644l61 -49z" />
    <glyph glyph-name="zero" unicode="0" horiz-adv-x="554" 
d="M514 320q0 87 -20.5 149.5t-54 103t-76 59.5t-86.5 19q-45 0 -88 -19t-76 -59.5t-53 -103t-20 -149.5t20 -150t53 -103.5t76 -59.5t88 -19q44 0 86.5 19t76 59.5t54 103.5t20.5 150zM422 320q0 -70 -12.5 -118t-33 -77.5t-46.5 -42.5t-53 -13t-53.5 13t-46.5 42.5
t-32.5 77.5t-12.5 118q0 69 12.5 117t32.5 77.5t46.5 42.5t53.5 13t53 -13t46.5 -42.5t33 -77.5t12.5 -117z" />
    <glyph glyph-name="one" unicode="1" horiz-adv-x="331" 
d="M241 0v651l-206 -19l-17 -76l132 13v-569h91z" />
    <glyph glyph-name="two" unicode="2" horiz-adv-x="481" 
d="M444 0v78h-255q27 27 65 71t72.5 95.5t59 105.5t24.5 100q0 49 -15.5 86.5t-43.5 63t-66 38.5t-83 13t-83 -12.5t-70 -33.5l19 -80q31 20 62.5 33t71.5 13q49 0 82.5 -29t33.5 -89q0 -39 -22 -87.5t-61 -104t-92 -117.5t-114 -126v-18h415z" />
    <glyph glyph-name="three" unicode="3" horiz-adv-x="423" 
d="M383 189q0 42 -12.5 75t-32 56.5t-43.5 38t-48 20.5q15 4 30 15.5t27 28.5t19.5 38.5t7.5 45.5q0 32 -13 58.5t-35.5 45.5t-53.5 29.5t-68 10.5q-35 0 -64 -7.5t-58 -23.5l16 -77q29 17 51.5 23t51.5 6q35 0 58.5 -19.5t23.5 -53.5q0 -18 -9 -34t-25 -29.5t-37.5 -23
t-46.5 -14.5l18 -75q5 1 10 1h8q27 0 51.5 -10t42.5 -27t28.5 -39.5t10.5 -47.5q0 -34 -12.5 -59t-33 -41t-46.5 -23.5t-52 -7.5q-28 0 -58 7.5t-58 23.5l21 -92q25 -10 50 -14.5t49 -4.5q56 0 99 15t72.5 42t45 63.5t15.5 79.5z" />
    <glyph glyph-name="four" unicode="4" horiz-adv-x="496" 
d="M450 171v74h-75v393h-61l-301 -395l16 -72h255v-171h91v171h75zM285 478q-1 -21 -1 -40v-38v-155h-176l118 154q14 19 28.5 38.5t28.5 41.5z" />
    <glyph glyph-name="five" unicode="5" horiz-adv-x="450" 
d="M410 195q0 49 -17 88.5t-46.5 67t-69 42t-84.5 14.5q-6 0 -13 -0.5t-13 -1.5l4 155h175l17 78h-279l-10 -328q23 8 49 12.5t61 4.5q27 0 51 -9t42.5 -26t29.5 -41t11 -55q0 -30 -11 -53.5t-30 -40t-43.5 -25t-52.5 -8.5q-33 0 -66.5 8t-65.5 27l21 -92q19 -10 49 -16.5
t67 -6.5q55 0 97 16.5t70 45t42.5 66t14.5 78.5z" />
    <glyph glyph-name="six" unicode="6" horiz-adv-x="509" 
d="M469 197q0 43 -15 80.5t-42 65.5t-64.5 44t-83.5 16q-32 0 -58 -8.5t-43 -25.5q35 72 100.5 137t162.5 112l-90 42q-64 -33 -118.5 -82t-94 -107.5t-61.5 -122.5t-22 -128q0 -56 17.5 -99.5t47.5 -72.5t69 -44t83 -15q46 0 84.5 15.5t67 43.5t44.5 66t16 83zM377 196
q0 -29 -9 -52t-25 -40t-37.5 -26t-46.5 -9t-47.5 10.5t-40 28.5t-28 42t-10.5 51v19t2 18q14 47 47 66t76 19q26 0 48 -9.5t37.5 -27t24.5 -40.5t9 -50z" />
    <glyph glyph-name="seven" unicode="7" horiz-adv-x="462" 
d="M454 638h-423v-78h293l-242 -560h98z" />
    <glyph glyph-name="eight" unicode="8" horiz-adv-x="507" 
d="M467 177q0 36 -13 65.5t-31.5 51.5t-39.5 36.5t-37 20.5q16 7 32.5 19.5t30 30t22 40t8.5 48.5q0 36 -14 65.5t-39 51t-59 33.5t-74 12t-74 -12t-58.5 -33.5t-38.5 -51t-14 -65.5q0 -26 8 -49t21.5 -41t30 -30.5t33.5 -19.5q-16 -6 -37 -20.5t-39.5 -36t-31.5 -50.5
t-13 -65q0 -45 17 -80t46 -59t67.5 -37t82.5 -13q43 0 82 13t68.5 37t46.5 59t17 80zM352 487q0 -32 -24.5 -58.5t-69.5 -39.5q-45 12 -73 38.5t-28 59.5q0 38 28.5 62.5t68.5 24.5q42 0 70 -24.5t28 -62.5zM375 180q0 -24 -10 -44.5t-27 -35.5t-40 -23.5t-48 -8.5
t-47.5 8.5t-39.5 23.5t-27 35.5t-10 44.5q0 25 11 45t28.5 35.5t39 26.5t41.5 17q21 -6 44 -16.5t41.5 -26.5t31 -36t12.5 -45z" />
    <glyph glyph-name="nine" unicode="9" horiz-adv-x="509" 
d="M469 420q0 56 -17.5 99t-47.5 72.5t-69.5 44.5t-82.5 15q-46 0 -84.5 -15.5t-67 -43.5t-44.5 -66t-16 -83q0 -43 15 -80.5t42 -65.5t64.5 -44t83.5 -16q32 0 58 8.5t43 25.5q-35 -72 -100.5 -137t-162.5 -112l90 -42q64 33 118.5 82t94 107.5t61.5 122.5t22 128zM376 439
v-19t-2 -18q-14 -47 -47 -66t-76 -19q-26 0 -48 9.5t-38 27t-24.5 40.5t-8.5 50q0 28 9 51.5t25 40.5t37.5 26t46.5 9t47.5 -10.5t40 -28.5t28 -42t10.5 -51z" />
    <glyph glyph-name="colon" unicode=":" horiz-adv-x="197" 
d="M159 403q0 7 -6.5 17.5t-16.5 20.5t-20.5 16.5t-17.5 6.5q-8 0 -18 -6.5t-20 -16.5t-16.5 -20.5t-6.5 -17.5t6.5 -17.5t16.5 -20t20 -16t18 -6.5q7 0 17.5 6.5t20.5 16t16.5 20t6.5 17.5zM159 50q0 7 -6.5 17.5t-16.5 20t-20.5 16t-17.5 6.5q-8 0 -18 -6.5t-20 -16
t-16.5 -20t-6.5 -17.5q0 -8 6.5 -18t16.5 -20t20 -16.5t18 -6.5q7 0 17.5 6.5t20.5 16.5t16.5 20t6.5 18z" />
    <glyph glyph-name="semicolon" unicode=";" horiz-adv-x="197" 
d="M159 403q0 7 -6.5 17.5t-16.5 20.5t-20.5 16.5t-17.5 6.5q-8 0 -18 -6.5t-20 -16.5t-16.5 -20.5t-6.5 -17.5t6.5 -17.5t16.5 -20t20 -16t18 -6.5q7 0 17.5 6.5t20.5 16t16.5 20t6.5 17.5zM159 50q0 9 -7 19.5t-17 19.5t-20.5 15t-16.5 6q-7 0 -17.5 -6.5t-20 -15.5
t-16.5 -19.5t-7 -18.5q0 -6 5 -14t12.5 -15t16 -12.5t15.5 -6.5q-4 -23 -21 -57.5t-44 -69.5l35 -6q18 16 36 41t33 51t24.5 50t9.5 39z" />
    <glyph glyph-name="less" unicode="&#x3c;" horiz-adv-x="358" 
d="M278 155l-121 122l121 122l-59 58l-180 -180l180 -180z" />
    <glyph glyph-name="equal" unicode="=" horiz-adv-x="454" 
d="M414 324v78h-374v-78h374zM414 152v78h-374v-78h374z" />
    <glyph glyph-name="greater" unicode="&#x3e;" horiz-adv-x="358" 
d="M319 277l-180 180l-59 -58l121 -122l-121 -122l59 -58z" />
    <glyph glyph-name="question" unicode="?" horiz-adv-x="392" 
d="M352 513q0 43 -14.5 76.5t-40.5 56.5t-62 35t-78 12t-77 -12.5t-58 -34.5l18 -83q24 23 51.5 36.5t66.5 13.5q24 0 42.5 -8.5t31 -21t19 -28.5t6.5 -31q0 -40 -17 -69t-48 -61q-30 -32 -46.5 -75t-16.5 -88q0 -17 2 -28.5t5 -24.5l75 -17q-2 11 -2.5 24.5t-0.5 33.5
q0 29 11.5 58.5t39.5 59.5q41 45 67 85.5t26 90.5zM239 50q0 7 -6.5 17.5t-16 20t-20 16t-18.5 6.5t-18 -6.5t-20 -16t-16.5 -20t-6.5 -17.5q0 -8 6.5 -18t16.5 -20t20 -16.5t18 -6.5t18.5 6.5t20 16.5t16 20t6.5 18z" />
    <glyph glyph-name="at" unicode="@" horiz-adv-x="766" 
d="M726 383q0 55 -20 104t-57 86t-90 58t-120 21q-82 0 -154.5 -30t-127 -82.5t-86 -123t-31.5 -150.5q0 -63 20.5 -114t56 -87t84 -56t104.5 -20q40 0 66 8t38 17l20 79q-20 -17 -49 -26t-61 -9q-40 0 -76.5 12t-65 37.5t-45.5 64.5t-17 94q0 67 25.5 125.5t69 101.5
t101 67.5t121.5 24.5q50 0 91 -15t70 -41.5t45 -63.5t16 -80q0 -38 -11.5 -70.5t-28 -56.5t-36 -37.5t-35.5 -13.5q-19 0 -19 30q0 7 1 11l34 213q-14 14 -42.5 26.5t-68.5 12.5q-43 0 -84.5 -16.5t-74.5 -47.5t-53 -74t-20 -95q0 -32 10 -57t26 -41.5t36.5 -25t41.5 -8.5
q45 0 78.5 18t51.5 51q2 -35 23 -52t47 -17q48 0 84.5 23.5t61.5 60t37.5 80t12.5 84.5zM473 424l-14 -82q-11 -65 -41.5 -101.5t-63.5 -36.5q-26 0 -41.5 16.5t-15.5 48.5q0 35 12 64.5t32 51t46 33.5t55 12q10 0 18 -2t13 -4z" />
    <glyph glyph-name="A" unicode="A" horiz-adv-x="619" 
d="M599 0l-272 647h-35l-272 -647h95l69 165h248l69 -165h98zM399 242h-182l63 156q7 16 14.5 37t12.5 41h2q6 -20 13 -41t14 -37z" />
    <glyph glyph-name="B" unicode="B" horiz-adv-x="521" 
d="M481 194q0 31 -10 58t-26.5 49t-38 37t-43.5 21q28 12 43.5 44.5t15.5 67.5q0 42 -16 73.5t-41.5 52t-57.5 31t-64 10.5h-178v-638h207q37 0 74.5 11.5t67.5 35.5t48.5 60.5t18.5 86.5zM324 471q0 -44 -29 -63.5t-68 -19.5h-66v168h66q39 0 68 -20t29 -65zM382 194
q0 -29 -11 -50.5t-29 -35t-41.5 -20t-48.5 -6.5h-91v224h91q25 0 48.5 -7t41.5 -20.5t29 -35t11 -49.5z" />
    <glyph glyph-name="C" unicode="C" horiz-adv-x="600" 
d="M572 609q-29 17 -75.5 29.5t-112.5 12.5q-60 0 -121 -21t-110.5 -62.5t-81 -103.5t-31.5 -145q0 -82 31 -144t80.5 -103.5t111 -62.5t121.5 -21q62 0 99.5 7.5t67.5 23.5l20 93q-30 -18 -74.5 -29t-101.5 -11q-48 0 -94 15.5t-82.5 46t-58.5 77t-22 108.5
q0 63 22.5 109.5t59 77t82.5 46t93 15.5q25 0 48.5 -4t44.5 -10t38 -13.5t29 -14.5z" />
    <glyph glyph-name="D" unicode="D" horiz-adv-x="646" 
d="M606 319q0 77 -29 136.5t-77 100t-110 61.5t-129 21h-196v-638h196q67 0 129 21t110 61.5t77 100t29 136.5zM507 319q0 -61 -21 -105.5t-56.5 -74t-83.5 -43.5t-102 -14h-83v474h83q54 0 102 -14.5t83.5 -43.5t56.5 -73.5t21 -105.5z" />
    <glyph glyph-name="E" unicode="E" horiz-adv-x="465" 
d="M444 0v83h-282v196h207v83h-207v193h247v83h-344v-638h379z" />
    <glyph glyph-name="F" unicode="F" horiz-adv-x="432" 
d="M418 555v83h-353v-638h97v279h216v83h-216v193h256z" />
    <glyph glyph-name="G" unicode="G" horiz-adv-x="681" 
d="M623 57v259h-239v-78h147v-133q-47 -33 -135 -33q-49 0 -95.5 15t-82.5 46t-58 77t-22 108q0 63 22.5 109.5t59 77.5t82.5 46.5t93 15.5q51 0 96.5 -14t80.5 -37l18 84q-35 23 -87.5 37t-118.5 14q-60 0 -121 -21t-110.5 -62.5t-81 -103.5t-31.5 -145q0 -81 30.5 -143
t80 -103.5t112 -63t127.5 -21.5q72 0 129.5 16t103.5 53z" />
    <glyph glyph-name="H" unicode="H" horiz-adv-x="653" 
d="M588 0v638h-97v-276h-329v276h-97v-638h97v279h329v-279h97z" />
    <glyph glyph-name="I" unicode="I" horiz-adv-x="257" 
d="M177 0v638h-97v-638h97z" />
    <glyph glyph-name="J" unicode="J" horiz-adv-x="272" 
d="M192 126v512h-97v-502q0 -91 -40.5 -139.5t-115.5 -62.5l63 -64q32 6 66 24t61.5 49.5t45 77t17.5 105.5z" />
    <glyph glyph-name="K" unicode="K" horiz-adv-x="544" 
d="M532 0l-271 323l265 315h-112l-252 -301v301h-97v-638h97v299l251 -299h119z" />
    <glyph glyph-name="L" unicode="L" horiz-adv-x="448" 
d="M443 0v83h-281v555h-97v-638h378z" />
    <glyph glyph-name="M" unicode="M" horiz-adv-x="830" 
d="M785 0l-57 638h-60l-168 -328q-20 -40 -41.5 -83.5t-36.5 -80.5h-2q-16 37 -38 81.5t-42 82.5l-170 328h-60l-55 -638h86l25 288q2 29 5 67.5t5 75.5h2q17 -35 35.5 -74.5t35.5 -71.5l150 -290h36l148 290q16 31 36.5 72.5t35.5 75.5h2q2 -35 4.5 -74t5.5 -71l26 -288h92
z" />
    <glyph glyph-name="N" unicode="N" horiz-adv-x="702" 
d="M637 -14v652h-97v-302v-74t2 -76l-2 -1q-15 18 -32.5 38.5t-35.5 40.5t-35 39.5t-31 34.5l-274 300h-67v-638h97v320v76t-2 84l2 1q33 -39 72 -84t75 -84l299 -327h29z" />
    <glyph glyph-name="O" unicode="O" horiz-adv-x="756" 
d="M716 320q0 77 -29 138.5t-76.5 104t-108 65.5t-124.5 23t-124.5 -23t-108 -65.5t-76.5 -104t-29 -138.5q0 -78 29 -139.5t76.5 -104t108 -65.5t124.5 -23t124.5 23t108 65.5t76.5 104t29 139.5zM618 320q0 -59 -21 -105.5t-55.5 -78t-77.5 -48t-86 -16.5q-44 0 -87 16.5
t-77 48t-55 78t-21 105.5t21 105t55 77.5t77 48t87 16.5q43 0 86 -16.5t77.5 -48t55.5 -77.5t21 -105z" />
    <glyph glyph-name="P" unicode="P" horiz-adv-x="467" 
d="M449 459q0 45 -17.5 79t-45 56t-61.5 33t-68 11h-192v-638h96v280h96q34 0 68 11t61.5 33t45 56t17.5 79zM350 459q0 -25 -9 -43.5t-24.5 -30.5t-35.5 -17.5t-41 -5.5h-79v194h79q21 0 41 -6t35.5 -18t24.5 -30t9 -43z" />
    <glyph glyph-name="Q" unicode="Q" horiz-adv-x="756" 
d="M757 -42q-19 -8 -35 -10t-33 -2q-24 0 -53.5 6t-65.5 23q-30 14 -47.5 22t-31.5 11v2q46 13 86.5 41.5t71.5 68.5t49 90.5t18 109.5q0 77 -29 138.5t-76.5 104t-108 65.5t-124.5 23t-124.5 -23t-108 -65.5t-76.5 -104t-29 -138.5q0 -73 25.5 -131.5t68 -101t97.5 -67.5
t114 -30q26 -12 67.5 -32t88.5 -44q43 -23 81 -33.5t87 -10.5q15 0 27 3zM618 320q0 -59 -21 -105.5t-55.5 -78t-77.5 -48t-86 -16.5q-44 0 -87 16.5t-77 48t-55 78t-21 105.5t21 105t55 77.5t77 48t87 16.5q43 0 86 -16.5t77.5 -48t55.5 -77.5t21 -105z" />
    <glyph glyph-name="R" unicode="R" horiz-adv-x="555" 
d="M565 0l-218 295q47 19 79.5 59.5t32.5 104.5q0 45 -17.5 79t-45 56t-61.5 33t-68 11h-202v-638h96v280h90l201 -280h113zM360 459q0 -25 -9 -43.5t-24.5 -30.5t-35.5 -17.5t-41 -5.5h-89v194h89q21 0 41 -6t35.5 -18t24.5 -30t9 -43z" />
    <glyph glyph-name="S" unicode="S" horiz-adv-x="477" 
d="M438 180q0 40 -13.5 72t-38 56.5t-58.5 43.5t-76 33q-103 35 -103 99q0 35 28 61t77 26q39 0 73 -12.5t51 -24.5l19 80q-17 13 -54 25t-85 12q-51 0 -89 -14.5t-63 -39t-37.5 -56t-12.5 -64.5q0 -66 44 -113.5t130 -75.5q58 -19 84.5 -47t26.5 -70q0 -45 -32 -72t-86 -27
q-52 0 -99 16.5t-93 48.5l22 -106q25 -17 69 -30t96 -13q54 0 95 14t69 39.5t42 60.5t14 78z" />
    <glyph glyph-name="T" unicode="T" horiz-adv-x="517" 
d="M512 555v83h-507v-83h205v-555h97v555h205z" />
    <glyph glyph-name="U" unicode="U" horiz-adv-x="650" 
d="M585 225v413h-94v-403q0 -71 -41 -116t-124 -45t-123.5 45t-40.5 116v403h-97v-413q0 -56 19.5 -100t54.5 -74.5t82.5 -46.5t103.5 -16t103.5 16t82.5 46.5t54.5 74.5t19.5 100z" />
    <glyph glyph-name="V" unicode="V" horiz-adv-x="558" 
d="M548 638h-92l-118 -304q-14 -35 -27 -73.5t-26 -78.5h-2q-13 41 -26.5 80t-26.5 72l-118 304h-102l254 -647h31z" />
    <glyph glyph-name="W" unicode="W" horiz-adv-x="899" 
d="M884 638h-89l-103 -294q-11 -30 -24 -69t-23 -77h-2q-11 39 -22.5 77t-22.5 69l-103 294h-83l-102 -294q-11 -32 -23 -69.5t-23 -76.5h-2q-10 39 -23 76.5t-24 69.5l-103 294h-97l226 -647h33l119 341q13 36 26.5 77.5t28.5 93.5h2q15 -52 28.5 -93t26.5 -78l119 -341h33
z" />
    <glyph glyph-name="X" unicode="X" horiz-adv-x="574" 
d="M549 0l-203 329l194 309h-103l-100 -160q-11 -18 -23.5 -39t-22.5 -40h-2q-10 19 -22.5 40.5t-23.5 38.5l-99 160h-110l195 -315l-204 -323h103l106 168q11 18 25 41t25 43h2q11 -20 24 -42t25 -42l104 -168h110z" />
    <glyph glyph-name="Y" unicode="Y" horiz-adv-x="604" 
d="M594 638h-99l-128 -180q-13 -19 -30 -44t-31 -46h-2q-14 21 -30 45.5t-30 44.5l-128 180h-106l244 -344v-294h95v294z" />
    <glyph glyph-name="Z" unicode="Z" horiz-adv-x="508" 
d="M482 0v81h-318l-1 1q23 38 51 86t53 91l204 356v23h-425v-81h290l1 -1q-23 -37 -51.5 -86t-53.5 -92l-202 -355v-23h452z" />
    <glyph glyph-name="bracketleft" unicode="[" horiz-adv-x="298" 
d="M268 -218v76h-123v766h123v76h-212v-918h212z" />
    <glyph glyph-name="backslash" unicode="\" horiz-adv-x="617" 
d="M599 31l-523 644l-58 -48l520 -645z" />
    <glyph glyph-name="bracketright" unicode="]" horiz-adv-x="298" 
d="M248 -218v918h-212v-76h123v-766h-123v-76h212z" />
    <glyph glyph-name="asciicircum" unicode="^" horiz-adv-x="371" 
d="M339 554q-47 20 -85.5 55.5t-67.5 77.5q-29 -42 -68 -77.5t-86 -55.5l57 -54q27 13 50 28t47 39q23 -24 46.5 -39t50.5 -28z" />
    <glyph glyph-name="underscore" unicode="_" horiz-adv-x="500" 
d="M502 -231v78h-503v-78h503z" />
    <glyph glyph-name="grave" unicode="`" 
d="M311 563q-48 14 -102 40.5t-95 64.5l-20 -82q43 -29 81.5 -44t85.5 -28z" />
    <glyph glyph-name="a" unicode="a" horiz-adv-x="456" 
d="M432 47q-22 4 -36.5 21.5t-14.5 48.5v183q0 40 -13 70.5t-36 51.5t-55 31.5t-70 10.5q-42 0 -79.5 -9.5t-68.5 -29.5l18 -75q25 17 58 26.5t67 9.5q48 0 68 -21.5t20 -52.5v-29l-106 -10q-29 -3 -56 -13.5t-47.5 -28.5t-33 -44t-12.5 -59q0 -27 10 -52.5t29 -44.5
t46 -30.5t61 -11.5q37 0 70 13t57 45q8 -21 25.5 -37t40.5 -21zM290 168q0 -21 -9.5 -40t-25 -32.5t-34 -21.5t-36.5 -8q-27 0 -45 18.5t-18 42.5q0 25 18.5 47t59.5 26l90 8v-40z" />
    <glyph glyph-name="b" unicode="b" horiz-adv-x="512" 
d="M477 230q0 53 -20.5 96.5t-54.5 74t-79 47t-93 16.5q-29 0 -48.5 -5t-30.5 -10v263h-91v-681q27 -17 66.5 -29.5t91.5 -12.5q57 0 105 16.5t82 47.5t53 76t19 101zM385 230q0 -73 -44 -117t-123 -44q-26 0 -40.5 3.5t-26.5 8.5v283q12 8 32.5 14t46.5 6q28 0 56 -10.5
t50 -30.5t35.5 -48.5t13.5 -64.5z" />
    <glyph glyph-name="c" unicode="c" horiz-adv-x="458" 
d="M426 430q-29 16 -64.5 25t-80.5 9q-47 0 -91 -16t-78.5 -47t-55.5 -75t-21 -100t21 -99.5t55.5 -74.5t78.5 -47t91 -16q68 0 119 23l19 89q-38 -18 -68 -25t-62 -7q-31 0 -60.5 11t-52 31t-36 49.5t-13.5 65.5q0 37 13.5 66t35.5 49.5t51 31.5t60 11q33 0 62 -7t60 -27z
" />
    <glyph glyph-name="d" unicode="d" horiz-adv-x="538" 
d="M478 0v712h-91v-278q-17 11 -46.5 20.5t-66.5 9.5q-51 0 -94.5 -17.5t-75.5 -49t-50.5 -75.5t-18.5 -96q0 -59 21 -103.5t53.5 -74t72 -44.5t75.5 -15q47 0 83 12t57 35l3 -36h78zM387 115q-18 -20 -47 -33t-66 -13q-30 0 -57 11.5t-47 32t-31.5 49.5t-11.5 64
q0 36 11.5 65t31.5 49.5t47 32t57 11.5q36 0 65.5 -12.5t47.5 -29.5v-227z" />
    <glyph glyph-name="e" unicode="e" horiz-adv-x="491" 
d="M456 292q0 31 -13 62t-38 55.5t-61.5 39.5t-83.5 15q-39 0 -79.5 -15.5t-72.5 -45.5t-52.5 -74.5t-20.5 -102.5q0 -53 20 -96.5t53.5 -75t77.5 -48.5t92 -17q46 0 78 8t56 21l23 97q-32 -23 -66.5 -34.5t-78.5 -11.5q-40 0 -69.5 13t-49.5 33.5t-30.5 44t-11.5 44.5h273
l51 51q3 15 3 37zM364 290q0 -8 -1 -12h-228q4 24 17 43.5t31 34t39.5 22.5t42.5 8q22 0 40.5 -8.5t31.5 -22.5t20 -31t7 -34z" />
    <glyph glyph-name="f" unicode="f" horiz-adv-x="335" 
d="M367 701q-36 15 -77 15q-99 0 -151 -54.5t-52 -166.5v-42h-77v-73h77v-380h91v380h116l15 73h-131v70q0 22 6 43.5t18 37.5t30 26t41 10q20 0 40.5 -4t37.5 -12z" />
    <glyph glyph-name="g" unicode="g" horiz-adv-x="460" 
d="M431 -81q0 63 -33.5 98.5t-93.5 56.5l-124 43q-8 3 -10.5 8t-2.5 8q0 15 15.5 20t42.5 5q40 0 71 12.5t53 33.5t33.5 49t11.5 58q0 22 -4.5 40t-11.5 29q11 1 25.5 4.5t19.5 7.5l-17 75q-12 -6 -29.5 -11t-37.5 -5q-17 0 -32 1.5t-26 4.5t-24.5 5t-31.5 2
q-38 0 -69 -11.5t-53.5 -31.5t-35 -48.5t-12.5 -61.5q0 -38 17.5 -69t49.5 -54q-19 -10 -35 -29.5t-16 -44.5l46 -46q-18 -6 -35 -18.5t-30 -30t-21 -40t-8 -47.5q0 -35 14.5 -65t41.5 -52t65 -34t85 -12q45 0 82.5 11.5t64 31.5t41 47.5t14.5 59.5zM311 311q0 -16 -7 -30.5
t-19 -25t-27.5 -16.5t-32.5 -6q-38 0 -62.5 23t-24.5 55q0 31 24.5 54.5t62.5 23.5t62 -23.5t24 -54.5zM347 -80q0 -14 -7.5 -27.5t-22.5 -25t-37.5 -18.5t-52.5 -7q-31 0 -54 7.5t-38.5 20.5t-23 29t-7.5 33q0 38 26 63t68 25l79 -23q35 -11 52.5 -31t17.5 -46z" />
    <glyph glyph-name="h" unicode="h" horiz-adv-x="511" 
d="M456 0v300q0 38 -13 68.5t-36 51.5t-54.5 32.5t-68.5 11.5q-50 0 -79 -12t-54 -36v296h-91v-712h91v291q0 18 7 35t20.5 30.5t34 21.5t47.5 8q28 0 48 -8t33 -21.5t18.5 -30.5t5.5 -35v-291h91z" />
    <glyph glyph-name="i" unicode="i" horiz-adv-x="242" 
d="M177 595q0 7 -6 16.5t-15 18.5t-18.5 15t-16.5 6t-16.5 -6t-18 -15t-14.5 -18.5t-6 -16.5t6 -16.5t14.5 -18t18 -14.5t16.5 -6t16.5 6t18.5 14.5t15 18t6 16.5zM167 0v453h-92v-453h92z" />
    <glyph glyph-name="j" unicode="j" horiz-adv-x="242" 
d="M176 595q0 7 -6 16.5t-14.5 18.5t-18 15t-16.5 6t-16.5 -6t-18.5 -15t-15 -18.5t-6 -16.5t6 -16.5t15 -18t18.5 -14.5t16.5 -6t16.5 6t18 14.5t14.5 18t6 16.5zM167 -49v502h-92v-495q0 -59 -26.5 -90.5t-71.5 -41.5l58 -57q24 6 48 21.5t42.5 39.5t30 54.5t11.5 66.5z
" />
    <glyph glyph-name="k" unicode="k" horiz-adv-x="459" 
d="M458 0l-204 229l198 224h-108l-193 -216v475h-91v-712h91v213l189 -213h118z" />
    <glyph glyph-name="l" unicode="l" horiz-adv-x="263" 
d="M227 44q-21 4 -41 23.5t-20 51.5v593h-91v-605q0 -33 10 -55.5t24 -37t29.5 -22t26.5 -10.5z" />
    <glyph glyph-name="m" unicode="m" horiz-adv-x="782" 
d="M727 0v318q0 31 -12 58t-33.5 46.5t-51 30.5t-63.5 11q-63 0 -101.5 -19t-61.5 -45q-17 26 -51 45t-76 19q-53 0 -82.5 -14t-55.5 -42l-4 45h-80v-453h91v310q0 31 26 53t74 22q50 0 75 -20.5t25 -54.5v-310h91v310q0 31 26 53t74 22q49 0 74 -20.5t25 -54.5v-310h91z
" />
    <glyph glyph-name="n" unicode="n" horiz-adv-x="506" 
d="M451 0v300q0 38 -13 68.5t-36 51.5t-54.5 32.5t-68.5 11.5q-53 0 -83.5 -14t-56.5 -42l-4 45h-80v-453h91v291q0 18 7 35t20.5 30.5t34 21.5t47.5 8q28 0 48 -8t33 -21.5t18.5 -30.5t5.5 -35v-291h91z" />
    <glyph glyph-name="o" unicode="o" horiz-adv-x="551" 
d="M516 226q0 53 -18.5 96.5t-51 75t-76 49t-94.5 17.5t-95 -17.5t-76.5 -49t-51 -75t-18.5 -96.5t18.5 -96.5t51 -74.5t76.5 -48.5t95 -17.5t94.5 17.5t76 48.5t51 74.5t18.5 96.5zM424 226q0 -35 -12 -64t-32.5 -49.5t-47 -32t-56.5 -11.5t-57 11.5t-47.5 32t-32.5 49.5
t-12 64q0 36 12 65t32.5 49.5t47.5 32t57 11.5t56.5 -11.5t47 -32t32.5 -49.5t12 -65z" />
    <glyph glyph-name="p" unicode="p" horiz-adv-x="538" 
d="M503 227q0 59 -21 103.5t-53.5 74t-72 44.5t-75.5 15q-47 0 -83 -12t-57 -35l-3 36h-78v-684h91v250q17 -11 46.5 -20.5t66.5 -9.5q51 0 94.5 17.5t75.5 49t50.5 75t18.5 96.5zM411 227q0 -36 -11.5 -65t-31.5 -49.5t-47 -32t-57 -11.5q-36 0 -65.5 12.5t-47.5 29.5v227
q18 20 47 33t66 13q30 0 57 -11.5t47 -32t31.5 -49.5t11.5 -64z" />
    <glyph glyph-name="q" unicode="q" horiz-adv-x="512" 
d="M452 -231v693h-22l-40 -23q-21 10 -52.5 17.5t-61.5 7.5q-47 0 -90.5 -15.5t-77 -45.5t-53.5 -73.5t-20 -99.5t20.5 -101t54.5 -76t79 -47.5t93 -16.5q26 0 45.5 4.5t33.5 10.5v-235h91zM361 89q-17 -10 -36 -15t-43 -5q-29 0 -57 11t-49.5 31.5t-35 50.5t-13.5 68
q0 35 12 63.5t32.5 48.5t47.5 31t57 11q28 0 49.5 -6.5t35.5 -14.5v-274z" />
    <glyph glyph-name="r" unicode="r" horiz-adv-x="341" 
d="M326 382l-17 77q-51 0 -93.5 -17.5t-60.5 -59.5l-4 71h-86v-453h91v214q0 48 15 80.5t38 52t52 27.5t56 8h9z" />
    <glyph glyph-name="s" unicode="s" horiz-adv-x="375" 
d="M340 124q0 59 -37 93.5t-105 59.5q-34 12 -50 25t-16 35q0 23 17 37t46 14q37 0 62 -9t40 -20l17 76q-13 8 -46 18.5t-72 10.5q-34 0 -62 -9.5t-48 -27t-31 -41.5t-11 -52q0 -55 36 -89t104 -59q32 -11 48.5 -26.5t16.5 -39.5q0 -23 -20 -38.5t-52 -15.5q-42 0 -82 16
t-68 40l21 -100q20 -14 53.5 -23.5t73.5 -9.5q41 0 72 11t51.5 29.5t31 43t10.5 51.5z" />
    <glyph glyph-name="t" unicode="t" horiz-adv-x="360" 
d="M348 453h-160v139l-90 -47v-92h-89v-73h89v-249q0 -34 11.5 -59.5t31.5 -43t47 -26.5t58 -9q28 0 41 4l18 81q-20 -7 -50 -7q-28 0 -47.5 14.5t-19.5 42.5v252h144z" />
    <glyph glyph-name="u" unicode="u" horiz-adv-x="506" 
d="M451 0v453h-91v-291q0 -18 -7 -35t-20.5 -30.5t-34 -21.5t-47.5 -8q-29 0 -48.5 8t-32.5 21.5t-18.5 30.5t-5.5 35v291h-91v-300q0 -38 13 -68.5t36 -51.5t54.5 -32.5t68.5 -11.5q53 0 83.5 13.5t56.5 42.5l4 -45h80z" />
    <glyph glyph-name="v" unicode="v" horiz-adv-x="466" 
d="M441 453h-85l-81 -200q-9 -22 -19 -47.5t-18 -51.5h-2q-8 26 -18 51.5t-19 47.5l-82 200h-92l189 -461h37z" />
    <glyph glyph-name="w" unicode="w" horiz-adv-x="709" 
d="M679 453h-82l-71 -192q-8 -21 -16 -45t-16 -50h-2q-8 26 -15 48.5t-16 46.5l-72 192h-66l-71 -192q-8 -22 -16 -47t-16 -48h-2q-7 23 -15 47.5t-16 47.5l-71 192h-86l171 -461h33l82 220q9 23 18.5 51t18.5 59h2q18 -59 38 -112l82 -218h33z" />
    <glyph glyph-name="x" unicode="x" horiz-adv-x="445" 
d="M415 0l-140 233l133 220h-98l-58 -99q-8 -13 -14.5 -25t-13.5 -24h-2q-7 13 -13.5 25t-13.5 24l-58 99h-101l134 -224l-140 -229h98l62 104q6 11 14.5 25t15.5 28h2q7 -14 14.5 -28t14.5 -25l62 -104h102z" />
    <glyph glyph-name="y" unicode="y" horiz-adv-x="479" 
d="M454 453h-87l-85 -209q-9 -23 -19 -48t-19 -51h-2q-10 28 -20 54t-19 48l-84 206h-94l169 -413q-20 -49 -41 -85t-44.5 -62t-50 -43.5t-57.5 -29.5l55 -56q33 15 64 37t59.5 55t55 79t52.5 109z" />
    <glyph glyph-name="z" unicode="z" horiz-adv-x="420" 
d="M390 0v76h-225l-1 1q20 32 37 61l34 58l137 239v18h-330v-76h192l1 -1q-17 -26 -36 -58.5t-35 -60.5l-136 -239v-18h362z" />
    <glyph glyph-name="braceleft" unicode="{" horiz-adv-x="348" 
d="M318 -149q-62 0 -90 46t-28 134q0 67 -17.5 118.5t-59.5 90.5q42 41 59.5 91.5t17.5 117.5q0 88 28 134t90 46l-16 70q-51 0 -87 -19t-59.5 -52.5t-34 -78.5t-10.5 -96q0 -71 -20 -126t-71 -87q51 -32 71 -86.5t20 -125.5q0 -52 10.5 -97t34 -78.5t59.5 -52.5t87 -19z
" />
    <glyph glyph-name="bar" unicode="|" horiz-adv-x="238" 
d="M158 -231v943h-78v-943h78z" />
    <glyph glyph-name="braceright" unicode="}" horiz-adv-x="348" 
d="M328 240q-51 32 -71 87t-20 126q0 51 -10.5 96t-34 78.5t-59.5 52.5t-87 19l-16 -70q62 0 90 -46t28 -134q0 -67 17.5 -117.5t59.5 -91.5q-42 -39 -59.5 -90.5t-17.5 -118.5q0 -88 -28 -134t-90 -46l16 -70q51 0 87 19t59.5 52.5t34 78.5t10.5 97q0 71 20 125.5t71 86.5z
" />
    <glyph glyph-name="asciitilde" unicode="~" 
d="M342 325q-27 -16 -56 -27t-57 -16l-15 63q-40 -3 -70.5 -15.5t-65.5 -32.5l-18 -72q58 34 113 42l15 -61q40 3 70.5 14.5t65.5 34.5z" />
    <glyph glyph-name="nonbreakingspace" unicode="&#xa0;" horiz-adv-x="115" 
 />
    <glyph glyph-name="exclamdown" unicode="&#xa1;" horiz-adv-x="267" 
d="M191 590q0 7 -6.5 17.5t-16.5 20.5t-20.5 16.5t-17.5 6.5q-8 0 -18 -6.5t-20 -16.5t-16.5 -20.5t-6.5 -17.5t6.5 -17.5t16.5 -20t20 -16t18 -6.5q7 0 17.5 6.5t20.5 16t16.5 20t6.5 17.5zM187 -42l-16 502l-75 17l-16 -519h107z" />
    <glyph glyph-name="cent" unicode="&#xa2;" horiz-adv-x="458" 
d="M426 608q-25 14 -54.5 22.5t-65.5 10.5v96h-57v-97q-42 -5 -80.5 -23.5t-68.5 -48.5t-47.5 -71.5t-17.5 -92.5t17.5 -92t47.5 -71t68.5 -48.5t80.5 -23.5v-87h57v86q51 3 94 22l19 89q-38 -18 -68 -25t-62 -7q-31 0 -60.5 11t-52 31t-36 49.5t-13.5 65.5q0 37 13.5 66
t35.5 49.5t51 31.5t60 11q33 0 62 -7t60 -27z" />
    <glyph glyph-name="sterling" unicode="&#xa3;" horiz-adv-x="418" 
d="M395 68q-36 11 -76.5 16t-74.5 5q-27 0 -50 -2t-39 -4q11 21 19 61.5t8 99.5v47h138l6 57h-144v106q0 22 6.5 43.5t18.5 37.5t30 26t41 10q20 0 40.5 -4t37.5 -12l16 77q-36 15 -77 15q-99 0 -151 -54.5t-52 -166.5v-78h-77v-57h77v-39q0 -78 -15.5 -131.5t-41.5 -91.5
l68 -36q24 8 60 14t78 6q80 0 143 -24z" />
    <glyph glyph-name="currency" unicode="&#xa4;" horiz-adv-x="484" 
d="M444 111l-65 65q33 44 33 101q0 56 -31 99l63 64l-40 40l-64 -64q-43 31 -98 31q-57 0 -101 -33l-64 64l-40 -41l10 -10t22 -22.5t22 -22.5l10 -10q-14 -20 -21.5 -44.5t-7.5 -50.5q0 -55 31 -98l-65 -65l40 -41l65 65q21 -14 46 -22.5t53 -8.5q26 0 50.5 7.5t45.5 21.5
l65 -65zM360 277q0 -24 -9.5 -45.5t-25.5 -37.5t-37.5 -25t-45.5 -9t-45.5 9t-37 25t-24.5 37.5t-9 45.5t9 45t24.5 37t37 25t45.5 9t45.5 -9t37.5 -25t25.5 -37t9.5 -45z" />
    <glyph glyph-name="yen" unicode="&#xa5;" horiz-adv-x="604" 
d="M594 638h-97l-128 -180q-13 -19 -30 -44t-31 -46h-2q-14 21 -30 45.5t-30 44.5l-128 180h-108l175 -247h-67v-57h109l27 -41v-16h-136v-57h136v-220h95v220h135v57h-135v18l28 39h107v57h-66z" />
    <glyph glyph-name="brokenbar" unicode="&#xa6;" horiz-adv-x="238" 
d="M158 300v412h-78v-412h78zM158 -231v412h-78v-412h78z" />
    <glyph glyph-name="section" unicode="&#xa7;" horiz-adv-x="465" 
d="M413 -53q0 29 -8.5 54.5t-21.5 41.5l30 131l-243 254q-10 11 -15.5 27.5t-5.5 25.5q0 36 26 61.5t77 25.5q38 0 67.5 -9t57.5 -27l18 83q-27 15 -60.5 24.5t-84.5 9.5q-45 0 -80.5 -14t-60 -37.5t-37.5 -54t-13 -62.5q0 -28 8.5 -54t21.5 -42l-30 -131l244 -254
q14 -14 17.5 -29.5t3.5 -23.5q0 -36 -26 -61.5t-77 -25.5q-38 0 -67.5 9.5t-58.5 26.5l-16 -82q26 -16 59.5 -25.5t84.5 -9.5q46 0 81.5 14t59.5 37.5t36.5 54t12.5 62.5zM353 135l-15 -67l-219 227l14 66z" />
    <glyph glyph-name="dieresis" unicode="&#xa8;" 
d="M328 566q0 7 -5.5 16t-13.5 17t-17 14t-16 6t-16 -6t-17 -14t-13.5 -17t-5.5 -16q0 -6 5.5 -15t13.5 -17t17 -14t16 -6t16 6t17 14t13.5 17t5.5 15zM175 566q0 7 -5.5 16t-13.5 17t-17 14t-16 6q-6 0 -15 -6t-17 -14t-14 -17t-6 -16q0 -6 6 -15t14 -17t17 -14t15 -6
q7 0 16 6t17 14t13.5 17t5.5 15z" />
    <glyph glyph-name="copyright" unicode="&#xa9;" horiz-adv-x="600" 
d="M565 250q0 58 -20.5 106.5t-56 83t-84 54t-104.5 19.5t-104 -19.5t-84 -54t-56.5 -83t-20.5 -106.5t20.5 -106t56.5 -83t84 -54.5t104 -19.5t104.5 19.5t84 54.5t56 83t20.5 106zM509 250q0 -45 -15.5 -84t-43 -67.5t-66 -44.5t-84.5 -16q-47 0 -85 16t-66 44.5t-43 67.5
t-15 84t15 83.5t43 67t66 45t85 16.5q46 0 84.5 -16.5t66 -45t43 -67t15.5 -83.5zM411 361q-16 12 -38.5 20t-53.5 8q-28 0 -54.5 -10t-47.5 -28.5t-33.5 -44.5t-12.5 -58q0 -33 12.5 -59.5t33.5 -45t47.5 -28.5t54.5 -10q21 0 39 5.5t32 13.5l15 75q-26 -19 -45.5 -24
t-37.5 -5q-31 0 -54 20.5t-23 57.5q0 36 23 55t54 19q20 0 40.5 -5t37.5 -16z" />
    <glyph glyph-name="ordfeminine" unicode="&#xaa;" horiz-adv-x="374" 
d="M366 324q-46 7 -46 52v143q0 33 -11 57.5t-30 41t-45 25t-57 8.5q-34 0 -65.5 -7.5t-57.5 -24.5l17 -67q23 15 49.5 22.5t52.5 7.5q36 0 51 -15.5t15 -37.5v-20l-87 -8q-22 -2 -43 -11.5t-37.5 -24.5t-26.5 -35t-10 -43t8.5 -44t24 -37t38 -25.5t50.5 -9.5q29 0 54.5 10
t45.5 32q8 -15 22 -26.5t34 -15.5zM241 151q0 7 -5.5 16t-13.5 17t-17 14t-16 6q-6 0 -15 -6t-17 -14t-14 -17t-6 -16q0 -6 6 -15t14 -17t17 -14t15 -6q7 0 16 6t17 14t13.5 17t5.5 15zM239 416q0 -19 -7.5 -34t-19 -26t-26 -17t-27.5 -6q-20 0 -33 14.5t-13 33.5
q0 20 13 37t39 20l74 8v-30z" />
    <glyph glyph-name="guillemotleft" unicode="&#xab;" horiz-adv-x="440" 
d="M419 158q-33 64 -90 119q29 29 51 58t39 61l-52 52q-60 -99 -159 -171q50 -35 89.5 -78t69.5 -93zM209 158q-17 33 -39 61.5t-51 57.5q29 29 51 58t39 61l-52 52q-61 -100 -158 -171q50 -35 89 -78t69 -93z" />
    <glyph glyph-name="logicalnot" unicode="&#xac;" horiz-adv-x="500" 
d="M440 135v181h-400v-78h320v-103h80z" />
    <glyph glyph-name="registered" unicode="&#xae;" horiz-adv-x="480" 
d="M445 448q0 45 -16 82t-44 64t-65 42t-80 15q-44 0 -81 -15t-65 -42t-43.5 -64t-15.5 -82t15.5 -82t43.5 -64t65 -42t81 -15q43 0 80 15t65 42t44 64t16 82zM399 448q0 -36 -12 -66t-33.5 -51t-50.5 -33t-63 -12q-35 0 -64 12t-51 33t-34 51t-12 66t12 66t34 51t51 33
t64 12q34 0 63 -12t50.5 -33t33.5 -51t12 -66zM346 349l-59 85q16 9 26 25t10 38q0 18 -7 32t-18.5 23.5t-26.5 15t-30 5.5h-78v-250h48v98h30l65 -99zM275 497q0 -34 -41 -34h-23v68h23q41 0 41 -34z" />
    <glyph glyph-name="macron" unicode="&#xaf;" 
d="M292 525v77h-184v-77h184z" />
    <glyph glyph-name="macron" unicode="&#x2c9;" 
d="M292 525v77h-184v-77h184z" />
    <glyph glyph-name="degree" unicode="&#xb0;" horiz-adv-x="249" 
d="M228 552q0 21 -8 39.5t-22.5 32.5t-33 22t-39.5 8t-39.5 -8t-33 -22t-22.5 -32.5t-8 -39.5t8 -39.5t22.5 -32.5t33 -22t39.5 -8t39.5 8t33 22t22.5 32.5t8 39.5zM177 552q0 -23 -14.5 -37.5t-37.5 -14.5t-37.5 14.5t-14.5 37.5t14.5 37.5t37.5 14.5t37.5 -14.5
t14.5 -37.5z" />
    <glyph glyph-name="plusminus" unicode="&#xb1;" horiz-adv-x="885" 
d="M849 47q-22 4 -41.5 23.5t-19.5 51.5v549q-32 25 -69.5 35t-83.5 10q-50 0 -93 -16t-74 -47t-48.5 -76.5t-17.5 -104.5v-19h-224v54q0 22 6 43.5t18 37.5t30 26t41 10q32 0 58.5 -8.5t40.5 -17.5l18 76q-20 11 -45.5 18.5t-61.5 7.5q-93 0 -144.5 -56t-51.5 -157v-34h-77
v-73h77v-380h91v380h224v-380h91v380h85l16 73h-101v39q0 35 10 62.5t27.5 46.5t41 29t49.5 10q27 0 44.5 -2.5t31.5 -9.5v-518q0 -33 10 -55.5t24 -37t29.5 -22t26.5 -10.5z" />
    <glyph glyph-name="twosuperior" unicode="&#xb2;" horiz-adv-x="371" 
d="M316 249v54h-152q60 54 95.5 110t35.5 103q0 61 -38 98t-114 37q-32 0 -59.5 -7.5t-47.5 -19.5l12 -54q21 12 44 19.5t51 7.5q42 0 65 -20.5t23 -58.5q0 -42 -49 -105.5t-149 -147.5v-16h283z" />
    <glyph glyph-name="threesuperior" unicode="&#xb3;" horiz-adv-x="312" 
d="M271 377q0 22 -7.5 40t-19 31.5t-26 22.5t-27.5 13q20 9 33.5 28.5t13.5 43.5q0 45 -31 70t-82 25q-46 0 -84 -20l12 -54q37 20 72 20q20 0 34.5 -11t14.5 -30q0 -20 -22.5 -38t-52.5 -23l12 -54q5 2 11 2.5t9 0.5q34 0 55 -19t21 -48q0 -37 -26 -58.5t-59 -21.5
q-18 0 -42 5.5t-46 20.5l14 -62q14 -9 34 -13.5t40 -4.5q36 0 64 11t47 29.5t28.5 42.5t9.5 51z" />
    <glyph glyph-name="acute" unicode="&#xb4;" 
d="M305 586l-19 82q-42 -38 -96 -64.5t-102 -40.5l50 -49q47 13 85.5 28t81.5 44z" />
    <glyph glyph-name="mu" unicode="&#xb5;" horiz-adv-x="550" 
d="M511 0v453h-472v-453h472zM482 29h-182q-23 13 -37.5 32t-14.5 51q0 26 23.5 55.5t67.5 46.5l-241 170h384v-355zM257 29h-189v332l129 -271q8 -17 21.5 -33.5t38.5 -27.5z" />
    <glyph glyph-name="mu" unicode="&#x3bc;" horiz-adv-x="550" 
d="M511 0v453h-472v-453h472zM482 29h-182q-23 13 -37.5 32t-14.5 51q0 26 23.5 55.5t67.5 46.5l-241 170h384v-355zM257 29h-189v332l129 -271q8 -17 21.5 -33.5t38.5 -27.5z" />
    <glyph glyph-name="paragraph" unicode="&#xb6;" horiz-adv-x="440" 
d="M412 569v74h-170q-40 0 -76.5 -11.5t-64.5 -34.5t-45 -57.5t-17 -79.5t17 -79t45 -56.5t64.5 -34t75.5 -11.5h9v-321q0 -59 -26.5 -90.5t-71.5 -41.5l58 -57q24 6 48 21.5t42.5 39.5t30 54.5t11.5 66.5v618h70z" />
    <glyph glyph-name="periodcentered" unicode="&#xb7;" horiz-adv-x="197" 
d="M159 271q0 7 -6.5 17.5t-16.5 20t-20.5 16t-17.5 6.5q-8 0 -18 -6.5t-20 -16t-16.5 -20t-6.5 -17.5q0 -8 6.5 -18t16.5 -20t20 -16.5t18 -6.5q7 0 17.5 6.5t20.5 16.5t16.5 20t6.5 18z" />
    <glyph glyph-name="cedilla" unicode="&#xb8;" 
d="M298 -128q0 22 -9 40.5t-23 32t-31.5 21t-34.5 7.5l4 27h-38l-16 -86q8 3 16 3h16q20 0 36.5 -13t16.5 -35q0 -20 -14 -33t-32 -13q-19 0 -34 4t-34 18l-11 -51q18 -12 36.5 -18.5t41.5 -6.5q20 0 39.5 6.5t35.5 19.5t25.5 32t9.5 45z" />
    <glyph glyph-name="onesuperior" unicode="&#xb9;" horiz-adv-x="269" 
d="M183 249v402l-132 -13l-14 -60l82 8v-337h64z" />
    <glyph glyph-name="ordmasculine" unicode="&#xba;" horiz-adv-x="455" 
d="M422 461q0 42 -15 77t-41 60t-61.5 39t-76.5 14t-77 -14t-62 -39t-41 -60t-15 -77t15 -77t41 -60t62 -39t77 -14t76.5 14t61.5 39t41 60t15 77zM279 151q0 7 -5.5 16t-13.5 17t-17 14t-16 6q-6 0 -15 -6t-17 -14t-14 -17t-6 -16q0 -6 6 -15t14 -17t17 -14t15 -6q7 0 16 6
t17 14t13.5 17t5.5 15zM342 461q0 -27 -9 -50t-25 -39t-36.5 -25t-43.5 -9t-44 9t-37 25t-25 39t-9 50q0 28 9 50.5t25 38.5t37 25t44 9t43.5 -9t36.5 -25t25 -38.5t9 -50.5z" />
    <glyph glyph-name="guillemotright" unicode="&#xbb;" horiz-adv-x="440" 
d="M441 277q-98 73 -158 171l-52 -52q17 -32 38.5 -61t50.5 -58q-29 -29 -50.5 -57.5t-38.5 -61.5l52 -52q30 50 69.5 93t88.5 78zM232 277q-99 72 -159 171l-52 -52q32 -62 90 -119q-29 -29 -51 -57.5t-39 -61.5l52 -52q30 50 69.5 93t89.5 78z" />
    <glyph glyph-name="onequarter" unicode="&#xbc;" horiz-adv-x="743" 
d="M687 117v54h-53v226h-57l-189 -225l14 -55h168v-117h64v117h53zM622 625l-35 29l-520 -641l36 -29zM183 249v402l-132 -13l-14 -60l82 8v-337h64zM573 312q-3 -24 -3 -47v-94h-111l77 93q11 13 19 24.5t16 24.5z" />
    <glyph glyph-name="onehalf" unicode="&#xbd;" horiz-adv-x="798" 
d="M751 0v54h-152q60 54 95.5 110t35.5 103q0 61 -38 98t-114 37q-32 0 -59.5 -7.5t-47.5 -19.5l12 -54q21 12 44 19.5t51 7.5q42 0 65 -20.5t23 -58.5q0 -42 -49 -105.5t-149 -147.5v-16h283zM622 625l-35 29l-520 -641l36 -29zM183 249v402l-132 -13l-14 -60l82 8v-337h64
z" />
    <glyph glyph-name="threequarters" unicode="&#xbe;" horiz-adv-x="770" 
d="M727 117v54h-53v226h-57l-189 -225l14 -55h168v-117h64v117h53zM662 625l-35 29l-520 -641l36 -29zM271 377q0 22 -7.5 40t-19 31.5t-26 22.5t-27.5 13q20 9 33.5 28.5t13.5 43.5q0 45 -31 70t-82 25q-46 0 -84 -20l12 -54q37 20 72 20q20 0 34.5 -11t14.5 -30
q0 -20 -22.5 -38t-52.5 -23l12 -54q5 2 11 2.5t9 0.5q34 0 55 -19t21 -48q0 -37 -26 -58.5t-59 -21.5q-18 0 -42 5.5t-46 20.5l14 -62q14 -9 34 -13.5t40 -4.5q36 0 64 11t47 29.5t28.5 42.5t9.5 51zM613 312q-3 -24 -3 -47v-94h-111l77 93q11 13 19 24.5t16 24.5z" />
    <glyph glyph-name="questiondown" unicode="&#xbf;" horiz-adv-x="392" 
d="M275 590q0 7 -6.5 17.5t-16.5 20.5t-20.5 16.5t-17.5 6.5q-8 0 -18.5 -6.5t-20 -16.5t-16 -20.5t-6.5 -17.5t6.5 -17.5t16 -20t20 -16t18.5 -6.5q7 0 17.5 6.5t20.5 16t16.5 20t6.5 17.5zM370 -6l-18 83q-24 -23 -51.5 -36.5t-66.5 -13.5q-24 0 -42.5 8.5t-31 21
t-19 28.5t-6.5 31q0 40 17 69t48 61q30 32 46.5 75t16.5 88q0 17 -2 28.5t-5 24.5l-75 17q2 -11 2.5 -24.5t0.5 -33.5q0 -29 -11.5 -58.5t-39.5 -59.5q-41 -45 -67 -85.5t-26 -90.5q0 -43 14.5 -76.5t40.5 -56.5t62 -35t78 -12t77 12.5t58 34.5z" />
    <glyph glyph-name="Agrave" unicode="&#xc0;" horiz-adv-x="619" 
d="M599 0l-272 647h-35l-272 -647h95l69 165h248l69 -165h98zM399 242h-182l63 156q7 16 14.5 37t12.5 41h2q6 -20 13 -41t14 -37zM383 763q-48 14 -102 40.5t-95 64.5l-20 -82q43 -29 81.5 -44t85.5 -28z" />
    <glyph glyph-name="Aacute" unicode="&#xc1;" horiz-adv-x="619" 
d="M599 0l-272 647h-35l-272 -647h95l69 165h248l69 -165h98zM399 242h-182l63 156q7 16 14.5 37t12.5 41h2q6 -20 13 -41t14 -37zM449 786l-19 82q-42 -38 -96 -64.5t-102 -40.5l50 -49q47 13 85.5 28t81.5 44z" />
    <glyph glyph-name="Acircumflex" unicode="&#xc2;" horiz-adv-x="619" 
d="M599 0l-272 647h-35l-272 -647h95l69 165h248l69 -165h98zM399 242h-182l63 156q7 16 14.5 37t12.5 41h2q6 -20 13 -41t14 -37zM442 761q-40 17 -73 47t-58 66q-26 -36 -59 -66t-73 -47l48 -47q24 11 44 24t40 34q20 -21 39.5 -34t43.5 -24z" />
    <glyph glyph-name="Atilde" unicode="&#xc3;" horiz-adv-x="619" 
d="M599 0l-272 647h-35l-272 -647h95l69 165h248l69 -165h98zM399 242h-182l63 156q7 16 14.5 37t12.5 41h2q6 -20 13 -41t14 -37zM450 833q-27 -16 -56 -27t-57 -16l-15 63q-40 -3 -70.5 -15.5t-65.5 -32.5l-18 -72q58 34 113 42l15 -61q40 3 70.5 14.5t65.5 34.5z" />
    <glyph glyph-name="Adieresis" unicode="&#xc4;" horiz-adv-x="619" 
d="M599 0l-272 647h-35l-272 -647h95l69 165h248l69 -165h98zM399 242h-182l63 156q7 16 14.5 37t12.5 41h2q6 -20 13 -41t14 -37zM440 766q0 7 -5.5 16t-13.5 17t-17 14t-16 6t-16 -6t-17 -14t-13.5 -17t-5.5 -16q0 -6 5.5 -15t13.5 -17t17 -14t16 -6t16 6t17 14t13.5 17
t5.5 15zM287 766q0 7 -5.5 16t-13.5 17t-17 14t-16 6q-6 0 -15 -6t-17 -14t-14 -17t-6 -16q0 -6 6 -15t14 -17t17 -14t15 -6q7 0 16 6t17 14t13.5 17t5.5 15z" />
    <glyph glyph-name="Aring" unicode="&#xc5;" horiz-adv-x="619" 
d="M599 0l-272 647h-35l-272 -647h95l69 165h248l69 -165h98zM399 242h-182l63 156q7 16 14.5 37t12.5 41h2q6 -20 13 -41t14 -37zM424 817q0 23 -9 43.5t-24.5 36t-36.5 24.5t-44 9t-44 -9t-36.5 -24.5t-24.5 -36t-9 -43.5t9 -43.5t24.5 -36t36.5 -24.5t44 -9t44 9
t36.5 24.5t24.5 36t9 43.5zM368 817q0 -26 -16 -42t-42 -16t-42 16t-16 42t16 42t42 16t42 -16t16 -42z" />
    <glyph glyph-name="AE" unicode="&#xc6;" horiz-adv-x="814" 
d="M793 0v83h-282v196h207v83h-207v193h247v83h-378l-370 -638h97l96 165h212v-165h378zM416 556q0 -30 -0.5 -51t-0.5 -54v-209h-172l118 207q14 25 28 53t25 55z" />
    <glyph glyph-name="Ccedilla" unicode="&#xc7;" horiz-adv-x="600" 
d="M572 609q-29 17 -75.5 29.5t-112.5 12.5q-60 0 -121 -21t-110.5 -62.5t-81 -103.5t-31.5 -145q0 -75 26.5 -133.5t69.5 -99.5t97.5 -65t110.5 -31l-14 -76q8 3 16 3h16q20 0 36.5 -13t16.5 -35q0 -20 -14 -33t-32 -13q-19 0 -34 4t-34 18l-11 -51q18 -12 36.5 -18.5
t41.5 -6.5q20 0 39.5 6.5t35.5 19.5t25.5 32t9.5 45q0 22 -9 40.5t-23 32t-31.5 21t-34.5 7.5l2 15q62 0 100.5 7.5t68.5 23.5l20 93q-30 -18 -74.5 -29t-101.5 -11q-48 0 -94 15.5t-82.5 46t-58.5 77t-22 108.5q0 63 22.5 109.5t59 77t82.5 46t93 15.5q25 0 48.5 -4
t44.5 -10t38 -13.5t29 -14.5z" />
    <glyph glyph-name="Egrave" unicode="&#xc8;" horiz-adv-x="465" 
d="M444 0v83h-282v196h207v83h-207v193h247v83h-344v-638h379zM320 763q-48 14 -102 40.5t-95 64.5l-20 -82q43 -29 81.5 -44t85.5 -28z" />
    <glyph glyph-name="Eacute" unicode="&#xc9;" horiz-adv-x="465" 
d="M444 0v83h-282v196h207v83h-207v193h247v83h-344v-638h379zM388 786l-19 82q-42 -38 -96 -64.5t-102 -40.5l50 -49q47 13 85.5 28t81.5 44z" />
    <glyph glyph-name="Ecircumflex" unicode="&#xca;" horiz-adv-x="465" 
d="M444 0v83h-282v196h207v83h-207v193h247v83h-344v-638h379zM383 761q-40 17 -73 47t-58 66q-26 -36 -59 -66t-73 -47l48 -47q24 11 44 24t40 34q20 -21 39.5 -34t43.5 -24z" />
    <glyph glyph-name="Edieresis" unicode="&#xcb;" horiz-adv-x="465" 
d="M444 0v83h-282v196h207v83h-207v193h247v83h-344v-638h379zM376 766q0 7 -5.5 16t-13.5 17t-17 14t-16 6t-16 -6t-17 -14t-13.5 -17t-5.5 -16q0 -6 5.5 -15t13.5 -17t17 -14t16 -6t16 6t17 14t13.5 17t5.5 15zM223 766q0 7 -5.5 16t-13.5 17t-17 14t-16 6q-6 0 -15 -6
t-17 -14t-14 -17t-6 -16q0 -6 6 -15t14 -17t17 -14t15 -6q7 0 16 6t17 14t13.5 17t5.5 15z" />
    <glyph glyph-name="Igrave" unicode="&#xcc;" horiz-adv-x="257" 
d="M177 0v638h-97v-638h97zM218 763q-48 14 -102 40.5t-95 64.5l-20 -82q43 -29 81.5 -44t85.5 -28z" />
    <glyph glyph-name="Iacute" unicode="&#xcd;" horiz-adv-x="257" 
d="M177 0v638h-97v-638h97zM258 786l-19 82q-42 -38 -96 -64.5t-102 -40.5l50 -49q47 13 85.5 28t81.5 44z" />
    <glyph glyph-name="Icircumflex" unicode="&#xce;" horiz-adv-x="257" 
d="M177 0v638h-97v-638h97zM261 761q-40 17 -73 47t-58 66q-26 -36 -59 -66t-73 -47l48 -47q24 11 44 24t40 34q20 -21 39.5 -34t43.5 -24z" />
    <glyph glyph-name="Idieresis" unicode="&#xcf;" horiz-adv-x="257" 
d="M177 0v638h-97v-638h97zM259 766q0 7 -5.5 16t-13.5 17t-17 14t-16 6t-16 -6t-17 -14t-13.5 -17t-5.5 -16q0 -6 5.5 -15t13.5 -17t17 -14t16 -6t16 6t17 14t13.5 17t5.5 15zM106 766q0 7 -5.5 16t-13.5 17t-17 14t-16 6q-6 0 -15 -6t-17 -14t-14 -17t-6 -16q0 -6 6 -15
t14 -17t17 -14t15 -6q7 0 16 6t17 14t13.5 17t5.5 15z" />
    <glyph glyph-name="Eth" unicode="&#xd0;" horiz-adv-x="656" 
d="M616 319q0 77 -29 136.5t-77 100t-110 61.5t-129 21h-196v-276h-78v-73h78v-289h196q67 0 129 21t110 61.5t77 100t29 136.5zM517 319q0 -61 -21 -105.5t-56.5 -74t-83.5 -43.5t-102 -14h-83v207h111l15 73h-126v194h83q54 0 102 -14.5t83.5 -43.5t56.5 -73.5t21 -105.5z
" />
    <glyph glyph-name="Ntilde" unicode="&#xd1;" horiz-adv-x="702" 
d="M637 -14v652h-97v-302v-74t2 -76l-2 -1q-15 18 -32.5 38.5t-35.5 40.5t-35 39.5t-31 34.5l-274 300h-67v-638h97v320v76t-2 84l2 1q33 -39 72 -84t75 -84l299 -327h29zM491 833q-27 -16 -56 -27t-57 -16l-15 63q-40 -3 -70.5 -15.5t-65.5 -32.5l-18 -72q58 34 113 42
l15 -61q40 3 70.5 14.5t65.5 34.5z" />
    <glyph glyph-name="Ograve" unicode="&#xd2;" horiz-adv-x="756" 
d="M716 320q0 77 -29 138.5t-76.5 104t-108 65.5t-124.5 23t-124.5 -23t-108 -65.5t-76.5 -104t-29 -138.5q0 -78 29 -139.5t76.5 -104t108 -65.5t124.5 -23t124.5 23t108 65.5t76.5 104t29 139.5zM618 320q0 -59 -21 -105.5t-55.5 -78t-77.5 -48t-86 -16.5q-44 0 -87 16.5
t-77 48t-55 78t-21 105.5t21 105t55 77.5t77 48t87 16.5q43 0 86 -16.5t77.5 -48t55.5 -77.5t21 -105zM444 763q-48 14 -102 40.5t-95 64.5l-20 -82q43 -29 81.5 -44t85.5 -28z" />
    <glyph glyph-name="Oacute" unicode="&#xd3;" horiz-adv-x="756" 
d="M716 320q0 77 -29 138.5t-76.5 104t-108 65.5t-124.5 23t-124.5 -23t-108 -65.5t-76.5 -104t-29 -138.5q0 -78 29 -139.5t76.5 -104t108 -65.5t124.5 -23t124.5 23t108 65.5t76.5 104t29 139.5zM618 320q0 -59 -21 -105.5t-55.5 -78t-77.5 -48t-86 -16.5q-44 0 -87 16.5
t-77 48t-55 78t-21 105.5t21 105t55 77.5t77 48t87 16.5q43 0 86 -16.5t77.5 -48t55.5 -77.5t21 -105zM514 786l-19 82q-42 -38 -96 -64.5t-102 -40.5l50 -49q47 13 85.5 28t81.5 44z" />
    <glyph glyph-name="Ocircumflex" unicode="&#xd4;" horiz-adv-x="756" 
d="M716 320q0 77 -29 138.5t-76.5 104t-108 65.5t-124.5 23t-124.5 -23t-108 -65.5t-76.5 -104t-29 -138.5q0 -78 29 -139.5t76.5 -104t108 -65.5t124.5 -23t124.5 23t108 65.5t76.5 104t29 139.5zM618 320q0 -59 -21 -105.5t-55.5 -78t-77.5 -48t-86 -16.5q-44 0 -87 16.5
t-77 48t-55 78t-21 105.5t21 105t55 77.5t77 48t87 16.5q43 0 86 -16.5t77.5 -48t55.5 -77.5t21 -105zM511 761q-40 17 -73 47t-58 66q-26 -36 -59 -66t-73 -47l48 -47q24 11 44 24t40 34q20 -21 39.5 -34t43.5 -24z" />
    <glyph glyph-name="Otilde" unicode="&#xd5;" horiz-adv-x="756" 
d="M716 320q0 77 -29 138.5t-76.5 104t-108 65.5t-124.5 23t-124.5 -23t-108 -65.5t-76.5 -104t-29 -138.5q0 -78 29 -139.5t76.5 -104t108 -65.5t124.5 -23t124.5 23t108 65.5t76.5 104t29 139.5zM618 320q0 -59 -21 -105.5t-55.5 -78t-77.5 -48t-86 -16.5q-44 0 -87 16.5
t-77 48t-55 78t-21 105.5t21 105t55 77.5t77 48t87 16.5q43 0 86 -16.5t77.5 -48t55.5 -77.5t21 -105zM514 833q-27 -16 -56 -27t-57 -16l-15 63q-40 -3 -70.5 -15.5t-65.5 -32.5l-18 -72q58 34 113 42l15 -61q40 3 70.5 14.5t65.5 34.5z" />
    <glyph glyph-name="Odieresis" unicode="&#xd6;" horiz-adv-x="756" 
d="M716 320q0 77 -29 138.5t-76.5 104t-108 65.5t-124.5 23t-124.5 -23t-108 -65.5t-76.5 -104t-29 -138.5q0 -78 29 -139.5t76.5 -104t108 -65.5t124.5 -23t124.5 23t108 65.5t76.5 104t29 139.5zM618 320q0 -59 -21 -105.5t-55.5 -78t-77.5 -48t-86 -16.5q-44 0 -87 16.5
t-77 48t-55 78t-21 105.5t21 105t55 77.5t77 48t87 16.5q43 0 86 -16.5t77.5 -48t55.5 -77.5t21 -105zM508 766q0 7 -5.5 16t-13.5 17t-17 14t-16 6t-16 -6t-17 -14t-13.5 -17t-5.5 -16q0 -6 5.5 -15t13.5 -17t17 -14t16 -6t16 6t17 14t13.5 17t5.5 15zM355 766q0 7 -5.5 16
t-13.5 17t-17 14t-16 6q-6 0 -15 -6t-17 -14t-14 -17t-6 -16q0 -6 6 -15t14 -17t17 -14t15 -6q7 0 16 6t17 14t13.5 17t5.5 15z" />
    <glyph glyph-name="multiply" unicode="&#xd7;" horiz-adv-x="468" 
d="M397 153l-119 119l118 118l-42 42l-118 -118l-118 119l-43 -43l118 -118l-119 -119l43 -43l119 119l119 -118z" />
    <glyph glyph-name="Oslash" unicode="&#xd8;" horiz-adv-x="756" 
d="M716 320q0 78 -28.5 138t-76.5 104l58 71l-44 37l-59 -74q-42 27 -90 41t-98 14q-64 0 -124.5 -23t-108 -65.5t-76.5 -104t-29 -138.5q0 -78 28.5 -139.5t76.5 -104.5l-57 -71l44 -37l59 74q86 -54 187 -54q64 0 124.5 23t108 65.5t76.5 104t29 139.5zM618 320
q0 -59 -21 -105.5t-55.5 -78t-77.5 -48t-86 -16.5q-69 0 -131 39l307 380q29 -32 46.5 -74.5t17.5 -96.5zM510 527l-307 -379q-30 32 -47.5 74.5t-17.5 97.5q0 59 21 105t55 77.5t77 48t87 16.5q70 0 132 -40z" />
    <glyph glyph-name="Ugrave" unicode="&#xd9;" horiz-adv-x="650" 
d="M585 225v413h-94v-403q0 -71 -41 -116t-124 -45t-123.5 45t-40.5 116v403h-97v-413q0 -56 19.5 -100t54.5 -74.5t82.5 -46.5t103.5 -16t103.5 16t82.5 46.5t54.5 74.5t19.5 100zM391 763q-48 14 -102 40.5t-95 64.5l-20 -82q43 -29 81.5 -44t85.5 -28z" />
    <glyph glyph-name="Uacute" unicode="&#xda;" horiz-adv-x="650" 
d="M585 225v413h-94v-403q0 -71 -41 -116t-124 -45t-123.5 45t-40.5 116v403h-97v-413q0 -56 19.5 -100t54.5 -74.5t82.5 -46.5t103.5 -16t103.5 16t82.5 46.5t54.5 74.5t19.5 100zM475 786l-19 82q-42 -38 -96 -64.5t-102 -40.5l50 -49q47 13 85.5 28t81.5 44z" />
    <glyph glyph-name="Ucircumflex" unicode="&#xdb;" horiz-adv-x="650" 
d="M585 225v413h-94v-403q0 -71 -41 -116t-124 -45t-123.5 45t-40.5 116v403h-97v-413q0 -56 19.5 -100t54.5 -74.5t82.5 -46.5t103.5 -16t103.5 16t82.5 46.5t54.5 74.5t19.5 100zM456 761q-40 17 -73 47t-58 66q-26 -36 -59 -66t-73 -47l48 -47q24 11 44 24t40 34
q20 -21 39.5 -34t43.5 -24z" />
    <glyph glyph-name="Udieresis" unicode="&#xdc;" horiz-adv-x="650" 
d="M585 225v413h-94v-403q0 -71 -41 -116t-124 -45t-123.5 45t-40.5 116v403h-97v-413q0 -56 19.5 -100t54.5 -74.5t82.5 -46.5t103.5 -16t103.5 16t82.5 46.5t54.5 74.5t19.5 100zM456 766q0 7 -5.5 16t-13.5 17t-17 14t-16 6t-16 -6t-17 -14t-13.5 -17t-5.5 -16
q0 -6 5.5 -15t13.5 -17t17 -14t16 -6t16 6t17 14t13.5 17t5.5 15zM303 766q0 7 -5.5 16t-13.5 17t-17 14t-16 6q-6 0 -15 -6t-17 -14t-14 -17t-6 -16q0 -6 6 -15t14 -17t17 -14t15 -6q7 0 16 6t17 14t13.5 17t5.5 15z" />
    <glyph glyph-name="Yacute" unicode="&#xdd;" horiz-adv-x="604" 
d="M594 638h-99l-128 -180q-13 -19 -30 -44t-31 -46h-2q-14 21 -30 45.5t-30 44.5l-128 180h-106l244 -344v-294h95v294zM438 786l-19 82q-42 -38 -96 -64.5t-102 -40.5l50 -49q47 13 85.5 28t81.5 44z" />
    <glyph glyph-name="Thorn" unicode="&#xde;" horiz-adv-x="467" 
d="M449 385q0 45 -17.5 79t-45 56t-61.5 33t-68 11h-96v74h-96v-638h96v206h96q34 0 68 11t61.5 33t45 56t17.5 79zM350 385q0 -25 -9 -43.5t-24.5 -30.5t-35.5 -17.5t-41 -5.5h-79v194h79q21 0 41 -6t35.5 -18t24.5 -30t9 -43z" />
    <glyph glyph-name="germandbls" unicode="&#xdf;" horiz-adv-x="535" 
d="M500 124q0 59 -37 93.5t-105 59.5q-34 12 -50 25t-16 35q0 32 36 46.5t100 14.5q6 20 11.5 50.5t5.5 58.5q0 54 -15 93t-41 65t-60.5 38.5t-73.5 12.5t-74 -13t-60.5 -41.5t-40.5 -73t-15 -107.5v-481h91v505q0 27 6.5 51.5t19 43t31 29.5t42.5 11t43 -10.5t32 -27.5
t19.5 -38t6.5 -43q0 -15 -2.5 -29.5t-5.5 -27.5q-30 0 -56.5 -9.5t-46 -27t-30.5 -41.5t-11 -52q0 -55 36 -89t104 -59q32 -11 48.5 -26.5t16.5 -39.5q0 -23 -20 -38.5t-52 -15.5q-42 0 -75 13t-58 31v-87q20 -14 55.5 -24t75.5 -10q41 0 72 11t51.5 29.5t31 43t10.5 51.5z
" />
    <glyph glyph-name="agrave" unicode="&#xe0;" horiz-adv-x="456" 
d="M432 47q-22 4 -36.5 21.5t-14.5 48.5v183q0 40 -13 70.5t-36 51.5t-55 31.5t-70 10.5q-42 0 -79.5 -9.5t-68.5 -29.5l18 -75q25 17 58 26.5t67 9.5q48 0 68 -21.5t20 -52.5v-29l-106 -10q-29 -3 -56 -13.5t-47.5 -28.5t-33 -44t-12.5 -59q0 -27 10 -52.5t29 -44.5
t46 -30.5t61 -11.5q37 0 70 13t57 45q8 -21 25.5 -37t40.5 -21zM290 168q0 -21 -9.5 -40t-25 -32.5t-34 -21.5t-36.5 -8q-27 0 -45 18.5t-18 42.5q0 25 18.5 47t59.5 26l90 8v-40zM266 570q-40 12 -86 34.5t-81 55.5l-17 -70q37 -25 69 -38t73 -23z" />
    <glyph glyph-name="aacute" unicode="&#xe1;" horiz-adv-x="456" 
d="M432 47q-22 4 -36.5 21.5t-14.5 48.5v183q0 40 -13 70.5t-36 51.5t-55 31.5t-70 10.5q-42 0 -79.5 -9.5t-68.5 -29.5l18 -75q25 17 58 26.5t67 9.5q48 0 68 -21.5t20 -52.5v-29l-106 -10q-29 -3 -56 -13.5t-47.5 -28.5t-33 -44t-12.5 -59q0 -27 10 -52.5t29 -44.5
t46 -30.5t61 -11.5q37 0 70 13t57 45q8 -21 25.5 -37t40.5 -21zM290 168q0 -21 -9.5 -40t-25 -32.5t-34 -21.5t-36.5 -8q-27 0 -45 18.5t-18 42.5q0 25 18.5 47t59.5 26l90 8v-40zM315 590l-16 70q-35 -33 -81.5 -55.5t-86.5 -34.5l42 -41q41 11 73.5 23.5t68.5 37.5z" />
    <glyph glyph-name="acircumflex" unicode="&#xe2;" horiz-adv-x="456" 
d="M432 47q-22 4 -36.5 21.5t-14.5 48.5v183q0 40 -13 70.5t-36 51.5t-55 31.5t-70 10.5q-42 0 -79.5 -9.5t-68.5 -29.5l18 -75q25 17 58 26.5t67 9.5q48 0 68 -21.5t20 -52.5v-29l-106 -10q-29 -3 -56 -13.5t-47.5 -28.5t-33 -44t-12.5 -59q0 -27 10 -52.5t29 -44.5
t46 -30.5t61 -11.5q37 0 70 13t57 45q8 -21 25.5 -37t40.5 -21zM290 168q0 -21 -9.5 -40t-25 -32.5t-34 -21.5t-36.5 -8q-27 0 -45 18.5t-18 42.5q0 25 18.5 47t59.5 26l90 8v-40zM319 569q-34 14 -62 39.5t-49 56.5q-22 -31 -50 -56.5t-62 -39.5l41 -40q20 10 37 20.5
t34 28.5q17 -18 33.5 -28.5t37.5 -20.5z" />
    <glyph glyph-name="atilde" unicode="&#xe3;" horiz-adv-x="456" 
d="M432 47q-22 4 -36.5 21.5t-14.5 48.5v183q0 40 -13 70.5t-36 51.5t-55 31.5t-70 10.5q-42 0 -79.5 -9.5t-68.5 -29.5l18 -75q25 17 58 26.5t67 9.5q48 0 68 -21.5t20 -52.5v-29l-106 -10q-29 -3 -56 -13.5t-47.5 -28.5t-33 -44t-12.5 -59q0 -27 10 -52.5t29 -44.5
t46 -30.5t61 -11.5q37 0 70 13t57 45q8 -21 25.5 -37t40.5 -21zM290 168q0 -21 -9.5 -40t-25 -32.5t-34 -21.5t-36.5 -8q-27 0 -45 18.5t-18 42.5q0 25 18.5 47t59.5 26l90 8v-40zM339 630q-48 -28 -96 -37l-13 54q-34 -2 -60 -13t-56 -28l-15 -61q23 14 48 23t48 13l13 -52
q34 2 60 12t55 30z" />
    <glyph glyph-name="adieresis" unicode="&#xe4;" horiz-adv-x="456" 
d="M432 47q-22 4 -36.5 21.5t-14.5 48.5v183q0 40 -13 70.5t-36 51.5t-55 31.5t-70 10.5q-42 0 -79.5 -9.5t-68.5 -29.5l18 -75q25 17 58 26.5t67 9.5q48 0 68 -21.5t20 -52.5v-29l-106 -10q-29 -3 -56 -13.5t-47.5 -28.5t-33 -44t-12.5 -59q0 -27 10 -52.5t29 -44.5
t46 -30.5t61 -11.5q37 0 70 13t57 45q8 -21 25.5 -37t40.5 -21zM290 168q0 -21 -9.5 -40t-25 -32.5t-34 -21.5t-36.5 -8q-27 0 -45 18.5t-18 42.5q0 25 18.5 47t59.5 26l90 8v-40zM321 573q0 6 -5 13.5t-11.5 14.5t-14 12t-13.5 5t-14 -5t-14.5 -12t-11.5 -14.5t-5 -13.5
q0 -5 5 -12.5t11.5 -14.5t14.5 -12t14 -5t13.5 5t14 12t11.5 14.5t5 12.5zM191 573q0 6 -5 13.5t-11.5 14.5t-14 12t-13.5 5q-5 0 -13 -5t-15 -12t-12 -14.5t-5 -13.5q0 -5 5 -12.5t12 -14.5t15 -12t13 -5q6 0 13.5 5t14 12t11.5 14.5t5 12.5z" />
    <glyph glyph-name="aring" unicode="&#xe5;" horiz-adv-x="456" 
d="M432 47q-22 4 -36.5 21.5t-14.5 48.5v183q0 40 -13 70.5t-36 51.5t-55 31.5t-70 10.5q-42 0 -79.5 -9.5t-68.5 -29.5l18 -75q25 17 58 26.5t67 9.5q48 0 68 -21.5t20 -52.5v-29l-106 -10q-29 -3 -56 -13.5t-47.5 -28.5t-33 -44t-12.5 -59q0 -27 10 -52.5t29 -44.5
t46 -30.5t61 -11.5q37 0 70 13t57 45q8 -21 25.5 -37t40.5 -21zM290 168q0 -21 -9.5 -40t-25 -32.5t-34 -21.5t-36.5 -8q-27 0 -45 18.5t-18 42.5q0 25 18.5 47t59.5 26l90 8v-40zM306 616q0 20 -7.5 37.5t-21 30.5t-31 20.5t-37.5 7.5t-37.5 -7.5t-31 -20.5t-21 -30.5
t-7.5 -37.5t7.5 -37t21 -30.5t31 -21t37.5 -7.5t37.5 7.5t31 21t21 30.5t7.5 37zM258 616q0 -21 -13.5 -35t-35.5 -14t-35.5 14t-13.5 35q0 22 13.5 36t35.5 14t35.5 -14t13.5 -36z" />
    <glyph glyph-name="ae" unicode="&#xe6;" horiz-adv-x="746" 
d="M711 292q0 31 -13 62t-38 55.5t-61.5 39.5t-83.5 15q-42 0 -84.5 -17.5t-75.5 -51.5q-23 35 -61.5 52t-86.5 17q-42 0 -79.5 -9.5t-68.5 -29.5l18 -75q25 17 58 26.5t67 9.5q48 0 68 -21.5t20 -52.5v-36l-103 -10q-32 -3 -60 -12.5t-48.5 -27t-32 -43t-11.5 -59.5
q0 -27 10 -51.5t29 -43t46.5 -29.5t63.5 -11q46 0 88.5 20t72.5 64q35 -40 83.5 -62t104.5 -22q46 0 78 8t56 21l23 97q-32 -23 -66.5 -34.5t-78.5 -11.5q-40 0 -69.5 13t-49 33.5t-30 44t-11.5 44.5h272l51 51q3 15 3 37zM619 290q0 -8 -1 -12h-227q4 24 16.5 43.5t30.5 34
t39.5 22.5t42.5 8q22 0 40.5 -8.5t31.5 -22.5t20 -31t7 -34zM290 168q0 -21 -9.5 -40t-25 -32.5t-34 -21.5t-36.5 -8q-27 0 -45 16.5t-18 39.5q0 29 18.5 48t62.5 23l87 8v-33z" />
    <glyph glyph-name="ccedilla" unicode="&#xe7;" horiz-adv-x="458" 
d="M426 430q-29 16 -64.5 25t-80.5 9q-47 0 -91 -16t-78.5 -47t-55.5 -75t-21 -100q0 -50 17 -90.5t45.5 -70t66.5 -48.5t79 -25l-13 -65q8 2 14 2h14q17 0 31 -11t14 -29q0 -17 -12 -28t-27 -11q-17 0 -29.5 3.5t-28.5 14.5l-10 -43q16 -11 31.5 -16t35.5 -5q17 0 33.5 5.5
t30 16.5t21.5 27t8 38q0 19 -7.5 34.5t-19.5 27t-26.5 18t-29.5 6.5l2 12q12 0 28 1t33 3.5t33.5 7t30.5 11.5l19 89q-38 -18 -68 -25t-62 -7q-31 0 -60.5 11t-52 31t-36 49.5t-13.5 65.5q0 37 13.5 66t35.5 49.5t51 31.5t60 11q33 0 62 -7t60 -27z" />
    <glyph glyph-name="egrave" unicode="&#xe8;" horiz-adv-x="491" 
d="M456 292q0 31 -13 62t-38 55.5t-61.5 39.5t-83.5 15q-39 0 -79.5 -15.5t-72.5 -45.5t-52.5 -74.5t-20.5 -102.5q0 -53 20 -96.5t53.5 -75t77.5 -48.5t92 -17q46 0 78 8t56 21l23 97q-32 -23 -66.5 -34.5t-78.5 -11.5q-40 0 -69.5 13t-49.5 33.5t-30.5 44t-11.5 44.5h273
l51 51q3 15 3 37zM364 290q0 -8 -1 -12h-228q4 24 17 43.5t31 34t39.5 22.5t42.5 8q22 0 40.5 -8.5t31.5 -22.5t20 -31t7 -34zM332 570q-40 12 -86 34.5t-81 55.5l-17 -70q37 -25 69 -38t73 -23z" />
    <glyph glyph-name="eacute" unicode="&#xe9;" horiz-adv-x="491" 
d="M456 292q0 31 -13 62t-38 55.5t-61.5 39.5t-83.5 15q-39 0 -79.5 -15.5t-72.5 -45.5t-52.5 -74.5t-20.5 -102.5q0 -53 20 -96.5t53.5 -75t77.5 -48.5t92 -17q46 0 78 8t56 21l23 97q-32 -23 -66.5 -34.5t-78.5 -11.5q-40 0 -69.5 13t-49.5 33.5t-30.5 44t-11.5 44.5h273
l51 51q3 15 3 37zM364 290q0 -8 -1 -12h-228q4 24 17 43.5t31 34t39.5 22.5t42.5 8q22 0 40.5 -8.5t31.5 -22.5t20 -31t7 -34zM377 590l-16 70q-35 -33 -81.5 -55.5t-86.5 -34.5l42 -41q41 11 73.5 23.5t68.5 37.5z" />
    <glyph glyph-name="ecircumflex" unicode="&#xea;" horiz-adv-x="491" 
d="M456 292q0 31 -13 62t-38 55.5t-61.5 39.5t-83.5 15q-39 0 -79.5 -15.5t-72.5 -45.5t-52.5 -74.5t-20.5 -102.5q0 -53 20 -96.5t53.5 -75t77.5 -48.5t92 -17q46 0 78 8t56 21l23 97q-32 -23 -66.5 -34.5t-78.5 -11.5q-40 0 -69.5 13t-49.5 33.5t-30.5 44t-11.5 44.5h273
l51 51q3 15 3 37zM364 290q0 -8 -1 -12h-228q4 24 17 43.5t31 34t39.5 22.5t42.5 8q22 0 40.5 -8.5t31.5 -22.5t20 -31t7 -34zM375 569q-34 14 -62 39.5t-49 56.5q-22 -31 -50 -56.5t-62 -39.5l41 -40q20 10 37 20.5t34 28.5q17 -18 33.5 -28.5t37.5 -20.5z" />
    <glyph glyph-name="edieresis" unicode="&#xeb;" horiz-adv-x="491" 
d="M456 292q0 31 -13 62t-38 55.5t-61.5 39.5t-83.5 15q-39 0 -79.5 -15.5t-72.5 -45.5t-52.5 -74.5t-20.5 -102.5q0 -53 20 -96.5t53.5 -75t77.5 -48.5t92 -17q46 0 78 8t56 21l23 97q-32 -23 -66.5 -34.5t-78.5 -11.5q-40 0 -69.5 13t-49.5 33.5t-30.5 44t-11.5 44.5h273
l51 51q3 15 3 37zM364 290q0 -8 -1 -12h-228q4 24 17 43.5t31 34t39.5 22.5t42.5 8q22 0 40.5 -8.5t31.5 -22.5t20 -31t7 -34zM371 573q0 6 -5 13.5t-11.5 14.5t-14 12t-13.5 5t-14 -5t-14.5 -12t-11.5 -14.5t-5 -13.5q0 -5 5 -12.5t11.5 -14.5t14.5 -12t14 -5t13.5 5t14 12
t11.5 14.5t5 12.5zM241 573q0 6 -5 13.5t-11.5 14.5t-14 12t-13.5 5q-5 0 -13 -5t-15 -12t-12 -14.5t-5 -13.5q0 -5 5 -12.5t12 -14.5t15 -12t13 -5q6 0 13.5 5t14 12t11.5 14.5t5 12.5z" />
    <glyph glyph-name="igrave" unicode="&#xec;" horiz-adv-x="242" 
d="M167 0v453h-92v-453h92zM184 570q-40 12 -86 34.5t-81 55.5l-17 -70q37 -25 69 -38t73 -23z" />
    <glyph glyph-name="iacute" unicode="&#xed;" horiz-adv-x="242" 
d="M167 0v453h-92v-453h92zM242 590l-16 70q-35 -33 -81.5 -55.5t-86.5 -34.5l42 -41q41 11 73.5 23.5t68.5 37.5z" />
    <glyph glyph-name="icircumflex" unicode="&#xee;" horiz-adv-x="242" 
d="M167 0v453h-92v-453h92zM233 569q-34 14 -62 39.5t-49 56.5q-22 -31 -50 -56.5t-62 -39.5l41 -40q20 10 37 20.5t34 28.5q17 -18 33.5 -28.5t37.5 -20.5z" />
    <glyph glyph-name="idieresis" unicode="&#xef;" horiz-adv-x="242" 
d="M167 0v453h-92v-453h92zM230 573q0 6 -5 13.5t-11.5 14.5t-14 12t-13.5 5t-14 -5t-14.5 -12t-11.5 -14.5t-5 -13.5q0 -5 5 -12.5t11.5 -14.5t14.5 -12t14 -5t13.5 5t14 12t11.5 14.5t5 12.5zM100 573q0 6 -5 13.5t-11.5 14.5t-14 12t-13.5 5q-5 0 -13 -5t-15 -12
t-12 -14.5t-5 -13.5q0 -5 5 -12.5t12 -14.5t15 -12t13 -5q6 0 13.5 5t14 12t11.5 14.5t5 12.5z" />
    <glyph glyph-name="eth" unicode="&#xf0;" horiz-adv-x="499" 
d="M459 209q0 19 -5 43t-11 38l-119 283l75 31l-27 68l-77 -31l-29 71h-95l43 -103l-83 -34l27 -68l85 34l48 -115q-23 -4 -50 -10t-51 -14q-33 -11 -61.5 -30.5t-49 -46.5t-32.5 -59.5t-12 -69.5q0 -44 16 -82t44.5 -66t67.5 -43.5t85 -15.5q43 0 81.5 14.5t67 43t45.5 69
t17 93.5zM368 208q0 -32 -9.5 -57.5t-26 -43.5t-39 -28t-47.5 -10q-26 0 -47.5 9.5t-38 26.5t-25.5 40t-9 51q0 50 27.5 84.5t78.5 51.5q21 7 45.5 12t42.5 7q6 -14 14.5 -33t16 -39.5t12.5 -39t5 -31.5z" />
    <glyph glyph-name="ntilde" unicode="&#xf1;" horiz-adv-x="506" 
d="M451 0v300q0 38 -13 68.5t-36 51.5t-54.5 32.5t-68.5 11.5q-53 0 -83.5 -14t-56.5 -42l-4 45h-80v-453h91v291q0 18 7 35t20.5 30.5t34 21.5t47.5 8q28 0 48 -8t33 -21.5t18.5 -30.5t5.5 -35v-291h91zM370 630q-48 -28 -96 -37l-13 54q-34 -2 -60 -13t-56 -28l-15 -61
q23 14 48 23t48 13l13 -52q34 2 60 12t55 30z" />
    <glyph glyph-name="ograve" unicode="&#xf2;" horiz-adv-x="551" 
d="M516 226q0 53 -18.5 96.5t-51 75t-76 49t-94.5 17.5t-95 -17.5t-76.5 -49t-51 -75t-18.5 -96.5t18.5 -96.5t51 -74.5t76.5 -48.5t95 -17.5t94.5 17.5t76 48.5t51 74.5t18.5 96.5zM424 226q0 -35 -12 -64t-32.5 -49.5t-47 -32t-56.5 -11.5t-57 11.5t-47.5 32t-32.5 49.5
t-12 64q0 36 12 65t32.5 49.5t47.5 32t57 11.5t56.5 -11.5t47 -32t32.5 -49.5t12 -65zM337 570q-40 12 -86 34.5t-81 55.5l-17 -70q37 -25 69 -38t73 -23z" />
    <glyph glyph-name="oacute" unicode="&#xf3;" horiz-adv-x="551" 
d="M516 226q0 53 -18.5 96.5t-51 75t-76 49t-94.5 17.5t-95 -17.5t-76.5 -49t-51 -75t-18.5 -96.5t18.5 -96.5t51 -74.5t76.5 -48.5t95 -17.5t94.5 17.5t76 48.5t51 74.5t18.5 96.5zM424 226q0 -35 -12 -64t-32.5 -49.5t-47 -32t-56.5 -11.5t-57 11.5t-47.5 32t-32.5 49.5
t-12 64q0 36 12 65t32.5 49.5t47.5 32t57 11.5t56.5 -11.5t47 -32t32.5 -49.5t12 -65zM407 590l-16 70q-35 -33 -81.5 -55.5t-86.5 -34.5l42 -41q41 11 73.5 23.5t68.5 37.5z" />
    <glyph glyph-name="ocircumflex" unicode="&#xf4;" horiz-adv-x="551" 
d="M516 226q0 53 -18.5 96.5t-51 75t-76 49t-94.5 17.5t-95 -17.5t-76.5 -49t-51 -75t-18.5 -96.5t18.5 -96.5t51 -74.5t76.5 -48.5t95 -17.5t94.5 17.5t76 48.5t51 74.5t18.5 96.5zM424 226q0 -35 -12 -64t-32.5 -49.5t-47 -32t-56.5 -11.5t-57 11.5t-47.5 32t-32.5 49.5
t-12 64q0 36 12 65t32.5 49.5t47.5 32t57 11.5t56.5 -11.5t47 -32t32.5 -49.5t12 -65zM385 569q-34 14 -62 39.5t-49 56.5q-22 -31 -50 -56.5t-62 -39.5l41 -40q20 10 37 20.5t34 28.5q17 -18 33.5 -28.5t37.5 -20.5z" />
    <glyph glyph-name="otilde" unicode="&#xf5;" horiz-adv-x="551" 
d="M516 226q0 53 -18.5 96.5t-51 75t-76 49t-94.5 17.5t-95 -17.5t-76.5 -49t-51 -75t-18.5 -96.5t18.5 -96.5t51 -74.5t76.5 -48.5t95 -17.5t94.5 17.5t76 48.5t51 74.5t18.5 96.5zM424 226q0 -35 -12 -64t-32.5 -49.5t-47 -32t-56.5 -11.5t-57 11.5t-47.5 32t-32.5 49.5
t-12 64q0 36 12 65t32.5 49.5t47.5 32t57 11.5t56.5 -11.5t47 -32t32.5 -49.5t12 -65zM396 630q-48 -28 -96 -37l-13 54q-34 -2 -60 -13t-56 -28l-15 -61q23 14 48 23t48 13l13 -52q34 2 60 12t55 30z" />
    <glyph glyph-name="odieresis" unicode="&#xf6;" horiz-adv-x="551" 
d="M516 226q0 53 -18.5 96.5t-51 75t-76 49t-94.5 17.5t-95 -17.5t-76.5 -49t-51 -75t-18.5 -96.5t18.5 -96.5t51 -74.5t76.5 -48.5t95 -17.5t94.5 17.5t76 48.5t51 74.5t18.5 96.5zM424 226q0 -35 -12 -64t-32.5 -49.5t-47 -32t-56.5 -11.5t-57 11.5t-47.5 32t-32.5 49.5
t-12 64q0 36 12 65t32.5 49.5t47.5 32t57 11.5t56.5 -11.5t47 -32t32.5 -49.5t12 -65zM387 573q0 6 -5 13.5t-11.5 14.5t-14 12t-13.5 5t-14 -5t-14.5 -12t-11.5 -14.5t-5 -13.5q0 -5 5 -12.5t11.5 -14.5t14.5 -12t14 -5t13.5 5t14 12t11.5 14.5t5 12.5zM257 573
q0 6 -5 13.5t-11.5 14.5t-14 12t-13.5 5q-5 0 -13 -5t-15 -12t-12 -14.5t-5 -13.5q0 -5 5 -12.5t12 -14.5t15 -12t13 -5q6 0 13.5 5t14 12t11.5 14.5t5 12.5z" />
    <glyph glyph-name="divide" unicode="&#xf7;" horiz-adv-x="454" 
d="M280 403q0 6 -6 15t-14 17.5t-17 14t-16 5.5t-16 -5.5t-17.5 -14t-14 -17.5t-5.5 -15q0 -7 5.5 -16t14 -17.5t17.5 -14t16 -5.5t16 5.5t17 14t14 17.5t6 16zM414 238v78h-374v-78h374zM280 152q0 6 -6 15t-14 17.5t-17 14t-16 5.5t-16 -5.5t-17.5 -14t-14 -17.5t-5.5 -15
q0 -7 5.5 -16t14 -17.5t17.5 -14t16 -5.5t16 5.5t17 14t14 17.5t6 16z" />
    <glyph glyph-name="oslash" unicode="&#xf8;" horiz-adv-x="545" 
d="M516 226q0 54 -19 97.5t-51 74.5l42 52l-42 35l-44 -54q-27 16 -59 24.5t-67 8.5q-51 0 -95 -17.5t-76.5 -49t-51 -75t-18.5 -96.5t18 -95.5t50 -74.5l-43 -53l42 -35l45 56q56 -35 129 -35q51 0 94.5 17.5t76 48.5t51 74.5t18.5 96.5zM424 226q0 -35 -12 -64
t-32.5 -49.5t-47 -32t-56.5 -11.5q-21 0 -40.5 5.5t-36.5 15.5l192 239q15 -20 24 -45.5t9 -57.5zM349 364l-190 -238q-15 20 -23.5 45.5t-8.5 54.5q0 36 12 65t32.5 49.5t47.5 32t57 11.5q20 0 38.5 -5.5t34.5 -14.5z" />
    <glyph glyph-name="ugrave" unicode="&#xf9;" horiz-adv-x="506" 
d="M451 0v453h-91v-291q0 -18 -7 -35t-20.5 -30.5t-34 -21.5t-47.5 -8q-29 0 -48.5 8t-32.5 21.5t-18.5 30.5t-5.5 35v291h-91v-300q0 -38 13 -68.5t36 -51.5t54.5 -32.5t68.5 -11.5q53 0 83.5 13.5t56.5 42.5l4 -45h80zM308 570q-40 12 -86 34.5t-81 55.5l-17 -70
q37 -25 69 -38t73 -23z" />
    <glyph glyph-name="uacute" unicode="&#xfa;" horiz-adv-x="506" 
d="M451 0v453h-91v-291q0 -18 -7 -35t-20.5 -30.5t-34 -21.5t-47.5 -8q-29 0 -48.5 8t-32.5 21.5t-18.5 30.5t-5.5 35v291h-91v-300q0 -38 13 -68.5t36 -51.5t54.5 -32.5t68.5 -11.5q53 0 83.5 13.5t56.5 42.5l4 -45h80zM391 590l-16 70q-35 -33 -81.5 -55.5t-86.5 -34.5
l42 -41q41 11 73.5 23.5t68.5 37.5z" />
    <glyph glyph-name="ucircumflex" unicode="&#xfb;" horiz-adv-x="506" 
d="M451 0v453h-91v-291q0 -18 -7 -35t-20.5 -30.5t-34 -21.5t-47.5 -8q-29 0 -48.5 8t-32.5 21.5t-18.5 30.5t-5.5 35v291h-91v-300q0 -38 13 -68.5t36 -51.5t54.5 -32.5t68.5 -11.5q53 0 83.5 13.5t56.5 42.5l4 -45h80zM367 569q-34 14 -62 39.5t-49 56.5
q-22 -31 -50 -56.5t-62 -39.5l41 -40q20 10 37 20.5t34 28.5q17 -18 33.5 -28.5t37.5 -20.5z" />
    <glyph glyph-name="udieresis" unicode="&#xfc;" horiz-adv-x="506" 
d="M451 0v453h-91v-291q0 -18 -7 -35t-20.5 -30.5t-34 -21.5t-47.5 -8q-29 0 -48.5 8t-32.5 21.5t-18.5 30.5t-5.5 35v291h-91v-300q0 -38 13 -68.5t36 -51.5t54.5 -32.5t68.5 -11.5q53 0 83.5 13.5t56.5 42.5l4 -45h80zM365 573q0 6 -5 13.5t-11.5 14.5t-14 12t-13.5 5
t-14 -5t-14.5 -12t-11.5 -14.5t-5 -13.5q0 -5 5 -12.5t11.5 -14.5t14.5 -12t14 -5t13.5 5t14 12t11.5 14.5t5 12.5zM235 573q0 6 -5 13.5t-11.5 14.5t-14 12t-13.5 5q-5 0 -13 -5t-15 -12t-12 -14.5t-5 -13.5q0 -5 5 -12.5t12 -14.5t15 -12t13 -5q6 0 13.5 5t14 12
t11.5 14.5t5 12.5z" />
    <glyph glyph-name="yacute" unicode="&#xfd;" horiz-adv-x="479" 
d="M454 453h-87l-85 -209q-9 -23 -19 -48t-19 -51h-2q-10 28 -20 54t-19 48l-84 206h-94l169 -413q-20 -49 -41 -85t-44.5 -62t-50 -43.5t-57.5 -29.5l55 -56q33 15 64 37t59.5 55t55 79t52.5 109zM371 590l-16 70q-35 -33 -81.5 -55.5t-86.5 -34.5l42 -41q41 11 73.5 23.5
t68.5 37.5z" />
    <glyph glyph-name="thorn" unicode="&#xfe;" horiz-adv-x="538" 
d="M503 227q0 59 -21 103.5t-53.5 74t-72 44.5t-75.5 15q-42 0 -75 -10t-55 -28v286h-91v-943h91v250q17 -11 46.5 -20.5t66.5 -9.5q51 0 94.5 17.5t75.5 49t50.5 75t18.5 96.5zM411 227q0 -36 -11.5 -65t-31.5 -49.5t-47 -32t-57 -11.5q-36 0 -65.5 12.5t-47.5 29.5v227
q18 20 47 33t66 13q30 0 57 -11.5t47 -32t31.5 -49.5t11.5 -64z" />
    <glyph glyph-name="ydieresis" unicode="&#xff;" horiz-adv-x="479" 
d="M454 453h-87l-85 -209q-9 -23 -19 -48t-19 -51h-2q-10 28 -20 54t-19 48l-84 206h-94l169 -413q-20 -49 -41 -85t-44.5 -62t-50 -43.5t-57.5 -29.5l55 -56q33 15 64 37t59.5 55t55 79t52.5 109zM351 570q0 6 -4.5 13.5t-11.5 14.5t-14.5 12t-13.5 5t-13.5 -5t-14 -12
t-11.5 -14.5t-5 -13.5q0 -5 5 -12.5t11.5 -14.5t14 -12t13.5 -5t13.5 5t14.5 12t11.5 14.5t4.5 12.5zM221 570q0 6 -4.5 13.5t-11.5 14.5t-14.5 12t-13.5 5q-5 0 -12.5 -5t-14.5 -12t-12 -14.5t-5 -13.5q0 -5 5 -12.5t12 -14.5t14.5 -12t12.5 -5q6 0 13.5 5t14.5 12
t11.5 14.5t4.5 12.5z" />
    <glyph glyph-name="dotlessi" unicode="&#x131;" horiz-adv-x="242" 
d="M167 0v453h-92v-453h92z" />
    <glyph glyph-name="Lslash" unicode="&#x141;" horiz-adv-x="458" 
d="M453 0v83h-281v232l102 59v85l-102 -59v238h-97v-293l-81 -47l36 -64l45 26v-260h378z" />
    <glyph glyph-name="lslash" unicode="&#x142;" horiz-adv-x="263" 
d="M244 361v85l-78 -45v311h-91v-364l-86 -50l35 -64l51 29v-156q0 -33 10 -55.5t24 -37t29.5 -22t26.5 -10.5l62 62q-21 4 -41 23.5t-20 51.5v197z" />
    <glyph glyph-name="OE" unicode="&#x152;" horiz-adv-x="953" 
d="M932 0v83h-282v196h207v83h-207v193h247v83h-343v-34q-40 23 -84.5 35t-91.5 12q-64 0 -124.5 -23t-108 -65.5t-76.5 -104t-29 -138.5q0 -78 29 -139.5t76.5 -104t108 -65.5t124.5 -23q47 0 91.5 12t84.5 35v-35h378zM554 141q-35 -32 -81.5 -50.5t-94.5 -18.5
q-44 0 -87 16.5t-77 48t-55 78t-21 105.5t21 105t55 77.5t77 48t87 16.5q48 0 94.5 -18.5t81.5 -50.5v-357z" />
    <glyph glyph-name="oe" unicode="&#x153;" horiz-adv-x="879" 
d="M844 292q0 31 -13 62t-38 55.5t-61.5 39.5t-83.5 15q-48 0 -96.5 -23t-82.5 -68q-32 43 -82.5 67t-110.5 24q-51 0 -95 -17.5t-76.5 -49t-51 -75t-18.5 -96.5t18.5 -96.5t51 -74.5t76.5 -48.5t95 -17.5q61 0 112 24.5t83 69.5q34 -45 84.5 -69.5t110.5 -24.5q46 0 78 8
t56 21l23 97q-32 -23 -66.5 -34.5t-78.5 -11.5q-40 0 -69.5 13t-49 33.5t-30 44t-11.5 44.5h272l51 51q3 15 3 37zM752 290q0 -8 -1 -12h-227q4 24 16.5 43.5t30.5 34t39.5 22.5t42.5 8q22 0 40.5 -8.5t31.5 -22.5t20 -31t7 -34zM424 226q0 -35 -12 -64t-32.5 -49.5t-47 -32
t-56.5 -11.5t-57 11.5t-47.5 32t-32.5 49.5t-12 64q0 36 12 65t32.5 49.5t47.5 32t57 11.5t56.5 -11.5t47 -32t32.5 -49.5t12 -65z" />
    <glyph glyph-name="Scaron" unicode="&#x160;" horiz-adv-x="477" 
d="M438 180q0 40 -13.5 72t-38 56.5t-58.5 43.5t-76 33q-103 35 -103 99q0 35 28 61t77 26q39 0 73 -12.5t51 -24.5l19 80q-17 13 -54 25t-85 12q-51 0 -89 -14.5t-63 -39t-37.5 -56t-12.5 -64.5q0 -66 44 -113.5t130 -75.5q58 -19 84.5 -47t26.5 -70q0 -45 -32 -72t-86 -27
q-52 0 -99 16.5t-93 48.5l22 -106q25 -17 69 -30t96 -13q54 0 95 14t69 39.5t42 60.5t14 78zM373 820l-48 47q-24 -12 -43.5 -25t-39.5 -33q-20 20 -40 33t-44 25l-48 -47q40 -17 73 -47.5t59 -65.5q25 35 58 65.5t73 47.5z" />
    <glyph glyph-name="scaron" unicode="&#x161;" horiz-adv-x="375" 
d="M340 124q0 59 -37 93.5t-105 59.5q-34 12 -50 25t-16 35q0 23 17 37t46 14q37 0 62 -9t40 -20l17 76q-13 8 -46 18.5t-72 10.5q-34 0 -62 -9.5t-48 -27t-31 -41.5t-11 -52q0 -55 36 -89t104 -59q32 -11 48.5 -26.5t16.5 -39.5q0 -23 -20 -38.5t-52 -15.5q-42 0 -82 16
t-68 40l21 -100q20 -14 53.5 -23.5t73.5 -9.5q41 0 72 11t51.5 29.5t31 43t10.5 51.5zM300 619l-40 40q-21 -11 -37.5 -21.5t-33.5 -27.5q-17 17 -34 27.5t-37 21.5l-41 -40q34 -14 62 -40t50 -56q21 30 49 56t62 40z" />
    <glyph glyph-name="Ydieresis" unicode="&#x178;" horiz-adv-x="604" 
d="M594 638h-99l-128 -180q-13 -19 -30 -44t-31 -46h-2q-14 21 -30 45.5t-30 44.5l-128 180h-106l244 -344v-294h95v294zM430 766q0 7 -5.5 16t-13.5 17t-17 14t-16 6t-16 -6t-17 -14t-13.5 -17t-5.5 -16q0 -6 5.5 -15t13.5 -17t17 -14t16 -6t16 6t17 14t13.5 17t5.5 15z
M277 766q0 7 -5.5 16t-13.5 17t-17 14t-16 6q-6 0 -15 -6t-17 -14t-14 -17t-6 -16q0 -6 6 -15t14 -17t17 -14t15 -6q7 0 16 6t17 14t13.5 17t5.5 15z" />
    <glyph glyph-name="Zcaron" unicode="&#x17d;" horiz-adv-x="508" 
d="M482 0v81h-318l-1 1q23 38 51 86t53 91l204 356v23h-425v-81h290l1 -1q-23 -37 -51.5 -86t-53.5 -92l-202 -355v-23h452zM384 820l-48 47q-24 -12 -43.5 -25t-39.5 -33q-20 20 -40 33t-44 25l-48 -47q40 -17 73 -47.5t59 -65.5q25 35 58 65.5t73 47.5z" />
    <glyph glyph-name="zcaron" unicode="&#x17e;" horiz-adv-x="420" 
d="M390 0v76h-225l-1 1q20 32 37 61l34 58l137 239v18h-330v-76h192l1 -1q-17 -26 -36 -58.5t-35 -60.5l-136 -239v-18h362zM320 619l-40 40q-21 -11 -37.5 -21.5t-33.5 -27.5q-17 17 -34 27.5t-37 21.5l-41 -40q34 -14 62 -40t50 -56q21 30 49 56t62 40z" />
    <glyph glyph-name="florin" unicode="&#x192;" horiz-adv-x="420" 
d="M410 645q-29 6 -65 6q-87 0 -141 -47.5t-70 -144.5l-1 -6h-77l-10 -57h77l-77 -438q-5 -28 -17.5 -50.5t-30 -39.5t-38.5 -28.5t-42 -16.5l54 -54q25 6 51.5 21t49 38.5t39.5 54.5t23 68l79 445h120l13 57h-123l3 17q9 50 40.5 77.5t72.5 27.5q22 0 32 -1t21 -4z" />
    <glyph glyph-name="circumflex" unicode="&#x2c6;" 
d="M331 561q-40 17 -73 47t-58 66q-26 -36 -59 -66t-73 -47l48 -47q24 11 44 24t40 34q20 -21 39.5 -34t43.5 -24z" />
    <glyph glyph-name="caron" unicode="&#x2c7;" 
d="M331 620l-48 47q-24 -12 -43.5 -25t-39.5 -33q-20 20 -40 33t-44 25l-48 -47q40 -17 73 -47.5t59 -65.5q25 35 58 65.5t73 47.5z" />
    <glyph glyph-name="breve" unicode="&#x2d8;" 
d="M323 561l-51 53q-1 -1 -10 -6t-26 -10.5t-36 -5.5q-18 0 -35.5 5.5t-27 10.5t-10.5 6l-51 -53l9.5 -7.5t26 -16t39.5 -16t49 -7.5t48.5 7.5t39 16t26 16z" />
    <glyph glyph-name="dotaccent" unicode="&#x2d9;" 
d="M252 566q0 7 -5.5 16t-13.5 17t-17 14t-16 6q-6 0 -15 -6t-17 -14t-14 -17t-6 -16q0 -6 6 -15t14 -17t17 -14t15 -6q7 0 16 6t17 14t13.5 17t5.5 15z" />
    <glyph glyph-name="ring" unicode="&#x2da;" 
d="M314 617q0 23 -9 43.5t-24.5 36t-36.5 24.5t-44 9t-44 -9t-36.5 -24.5t-24.5 -36t-9 -43.5t9 -43.5t24.5 -36t36.5 -24.5t44 -9t44 9t36.5 24.5t24.5 36t9 43.5zM258 617q0 -26 -16 -42t-42 -16t-42 16t-16 42t16 42t42 16t42 -16t16 -42z" />
    <glyph glyph-name="ogonek" unicode="&#x2db;" 
d="M293 -161q-13 -8 -27 -12t-34 -4q-26 0 -42 12t-16 34q0 21 10 40t26.5 35.5t37.5 30.5t44 25h-78q-42 -21 -72.5 -57t-30.5 -81t31.5 -69t75.5 -24q22 0 37 3.5t26 10.5z" />
    <glyph glyph-name="tilde" unicode="&#x2dc;" 
d="M342 633q-27 -16 -56 -27t-57 -16l-15 63q-40 -3 -70.5 -15.5t-65.5 -32.5l-18 -72q58 34 113 42l15 -61q40 3 70.5 14.5t65.5 34.5z" />
    <glyph glyph-name="hungarumlaut" unicode="&#x2dd;" 
d="M366 638l-48 49q-23 -42 -59 -85t-75 -73l70 -15q35 28 60.5 55t51.5 69zM216 638l-48 49q-23 -42 -59 -85t-75 -73l71 -15q34 28 59.5 55t51.5 69z" />
    <glyph glyph-name="Delta" unicode="&#x394;" horiz-adv-x="550" 
d="M511 0v453h-472v-453h472zM482 29h-182q-23 13 -37.5 32t-14.5 51q0 26 23.5 55.5t67.5 46.5l-241 170h384v-355zM257 29h-189v332l129 -271q8 -17 21.5 -33.5t38.5 -27.5z" />
    <glyph glyph-name="Omega" unicode="&#x3a9;" horiz-adv-x="550" 
d="M511 0v453h-472v-453h472zM482 29h-182q-23 13 -37.5 32t-14.5 51q0 26 23.5 55.5t67.5 46.5l-241 170h384v-355zM257 29h-189v332l129 -271q8 -17 21.5 -33.5t38.5 -27.5z" />
    <glyph glyph-name="pi" unicode="&#x3c0;" horiz-adv-x="550" 
d="M511 0v453h-472v-453h472zM482 29h-182q-23 13 -37.5 32t-14.5 51q0 26 23.5 55.5t67.5 46.5l-241 170h384v-355zM257 29h-189v332l129 -271q8 -17 21.5 -33.5t38.5 -27.5z" />
    <glyph glyph-name="endash" unicode="&#x2013;" horiz-adv-x="580" 
d="M540 238v78h-500v-78h500z" />
    <glyph glyph-name="emdash" unicode="&#x2014;" horiz-adv-x="830" 
d="M790 238v78h-750v-78h750z" />
    <glyph glyph-name="quoteleft" unicode="&#x2018;" horiz-adv-x="197" 
d="M175 706l-35 6q-18 -17 -36 -41.5t-32.5 -50.5t-24 -50t-9.5 -39q0 -9 7 -19.5t17 -19.5t20.5 -15t16.5 -6q7 0 17 6.5t20 15.5t17 19.5t7 18.5q0 6 -5.5 14t-13 15t-16 12.5t-14.5 6.5q3 23 20 57.5t44 69.5z" />
    <glyph glyph-name="quoteright" unicode="&#x2019;" horiz-adv-x="197" 
d="M159 657q0 9 -7 19.5t-17 19.5t-20.5 15t-16.5 6q-7 0 -17.5 -6.5t-20 -15.5t-16.5 -19.5t-7 -18.5q0 -6 5 -14t12.5 -15t16 -12.5t15.5 -6.5q-4 -23 -21 -57.5t-44 -69.5l35 -6q18 16 36 41t33 51t24.5 50t9.5 39z" />
    <glyph glyph-name="quotesinglbase" unicode="&#x201a;" horiz-adv-x="197" 
d="M159 50q0 9 -7 19.5t-17 19.5t-20.5 15t-16.5 6q-7 0 -17.5 -6.5t-20 -15.5t-16.5 -19.5t-7 -18.5q0 -6 5 -14t12.5 -15t16 -12.5t15.5 -6.5q-4 -23 -21 -57.5t-44 -69.5l35 -6q18 16 36 41t33 51t24.5 50t9.5 39z" />
    <glyph glyph-name="quotedblleft" unicode="&#x201c;" horiz-adv-x="368" 
d="M348 706l-36 7q-18 -17 -36 -41.5t-32.5 -50.5t-24 -50t-9.5 -39q0 -9 7 -19.5t17 -20t20.5 -15.5t16.5 -6q7 0 17 6.5t20 15.5t17 19.5t7 19.5q0 6 -5.5 13.5t-13 15t-16 13t-14.5 6.5q3 23 20 57t45 69zM175 706l-35 6q-18 -17 -36 -41.5t-32.5 -50.5t-24 -50t-9.5 -39
q0 -9 7 -19.5t17 -19.5t20.5 -15t16.5 -6q7 0 17 6.5t20 15.5t17 19.5t7 18.5q0 6 -5.5 14t-13 15.5t-16 12.5t-14.5 6q3 23 20 57.5t44 69.5z" />
    <glyph glyph-name="quotedblright" unicode="&#x201d;" horiz-adv-x="369" 
d="M331 657q0 9 -7.5 19.5t-17 19.5t-20 15t-16.5 6q-7 0 -17.5 -6.5t-20 -15.5t-16.5 -19.5t-7 -18.5q0 -6 5 -13.5t12.5 -15t16 -13t15.5 -6.5q-4 -23 -21 -57t-44 -69l35 -7q18 16 36 41t33 51t24.5 50t9.5 39zM159 657q0 9 -7.5 19.5t-17 19.5t-20 15t-16.5 6
q-7 0 -17.5 -6.5t-20 -15.5t-16.5 -19.5t-7 -18.5q0 -6 5 -14t12.5 -15t16 -12.5t15.5 -6.5q-4 -23 -21 -57.5t-44 -69.5l35 -6q18 16 36 41t33 51t24.5 50t9.5 39z" />
    <glyph glyph-name="quotedblbase" unicode="&#x201e;" horiz-adv-x="354" 
d="M325 50q0 9 -7.5 19.5t-17 19.5t-20 15t-16.5 6q-7 0 -17.5 -6.5t-20 -15.5t-16.5 -19.5t-7 -18.5q0 -6 5 -13.5t12.5 -15t16 -13t15.5 -6.5q-4 -23 -21 -57t-44 -69l35 -7q18 16 36 41t33 51t24.5 50t9.5 39zM153 50q0 9 -7.5 19.5t-17 19.5t-20 15t-16.5 6
q-7 0 -17.5 -6.5t-20 -15.5t-16.5 -19.5t-7 -18.5q0 -6 5 -14t12.5 -15t16 -12.5t15.5 -6.5q-4 -23 -21 -57.5t-44 -69.5l35 -6q18 16 36 41t33 51t24.5 50t9.5 39z" />
    <glyph glyph-name="dagger" unicode="&#x2020;" horiz-adv-x="332" 
d="M323 371v91l-113 -18l2 113h-92l2 -113l-114 18v-91l116 18l14 -620h55l15 620z" />
    <glyph glyph-name="daggerdbl" unicode="&#x2021;" horiz-adv-x="332" 
d="M323 -141v91l-126 -18l11 457l115 -18v91l-113 -18l2 113h-92l2 -113l-114 18v-91l116 18l10 -457l-126 18v-91l127 18l3 -108h55l2 108z" />
    <glyph glyph-name="bullet" unicode="&#x2022;" horiz-adv-x="395" 
d="M345 277q0 33 -11.5 59.5t-31 46t-46.5 30t-58 10.5t-58 -10.5t-47 -30t-31.5 -46t-11.5 -59.5q0 -32 11.5 -59t31.5 -46t47 -29.5t58 -10.5t58 10.5t46.5 29.5t31 46t11.5 59z" />
    <glyph glyph-name="ellipsis" unicode="&#x2026;" horiz-adv-x="549" 
d="M512 50q0 7 -6.5 17.5t-16.5 20t-20.5 16t-18.5 6.5t-18 -6.5t-20 -16t-16.5 -20t-6.5 -17.5q0 -8 6.5 -18t16.5 -20t20 -16.5t18 -6.5t18.5 6.5t20.5 16.5t16.5 20t6.5 18zM335 50q0 7 -6.5 17.5t-16.5 20t-20.5 16t-17.5 6.5q-8 0 -18.5 -6.5t-20 -16t-16 -20
t-6.5 -17.5q0 -8 6.5 -18t16 -20t20 -16.5t18.5 -6.5q7 0 17.5 6.5t20.5 16.5t16.5 20t6.5 18zM159 50q0 7 -6.5 17.5t-16.5 20t-20.5 16t-17.5 6.5q-8 0 -18 -6.5t-20 -16t-16.5 -20t-6.5 -17.5q0 -8 6.5 -18t16.5 -20t20 -16.5t18 -6.5q7 0 17.5 6.5t20.5 16.5t16.5 20
t6.5 18z" />
    <glyph glyph-name="perthousand" unicode="&#x2030;" horiz-adv-x="1057" 
d="M1021 132q0 31 -11 57.5t-30 45.5t-45 29.5t-57 10.5q-30 0 -56 -10.5t-45 -29.5t-30 -45.5t-11 -57.5q0 -32 11 -58.5t30 -45.5t45 -29.5t56 -10.5q31 0 57 10.5t45 29.5t30 45.5t11 58.5zM321 508q0 31 -11 57.5t-30 45.5t-45 29.5t-57 10.5q-30 0 -56 -10.5t-45 -29.5
t-30 -45.5t-11 -57.5q0 -32 11 -58.5t30 -45.5t45 -29.5t56 -10.5q31 0 57 10.5t45 29.5t30 45.5t11 58.5zM632 626l-44 37l-525 -650l44 -37zM660 132q0 31 -11 57.5t-30 45.5t-45 29.5t-56 10.5q-31 0 -57 -10.5t-45 -29.5t-30 -45.5t-11 -57.5q0 -32 11 -58.5t30 -45.5
t45 -29.5t57 -10.5q30 0 56 10.5t45 29.5t30 45.5t11 58.5zM947 132q0 -35 -20.5 -55.5t-48.5 -20.5q-29 0 -48.5 20.5t-19.5 55.5q0 34 19.5 53t48.5 19q28 0 48.5 -19t20.5 -53zM247 508q0 -35 -20.5 -55t-48.5 -20q-29 0 -48.5 20t-19.5 55q0 34 19.5 53.5t48.5 19.5
q28 0 48.5 -19.5t20.5 -53.5zM586 132q0 -35 -20 -55.5t-48 -20.5q-29 0 -49 20.5t-20 55.5q0 34 20 53t49 19q28 0 48 -19t20 -53z" />
    <glyph glyph-name="guilsinglleft" unicode="&#x2039;" horiz-adv-x="231" 
d="M210 158q-17 33 -39.5 61.5t-51.5 57.5q57 56 91 119l-52 52q-60 -99 -159 -171q50 -35 89.5 -78t69.5 -93z" />
    <glyph glyph-name="guilsinglright" unicode="&#x203a;" horiz-adv-x="231" 
d="M232 277q-99 72 -159 171l-52 -52q32 -62 90 -119q-29 -29 -51 -57.5t-39 -61.5l52 -52q30 50 69.5 93t89.5 78z" />
    <glyph glyph-name="trademark" unicode="&#x2122;" horiz-adv-x="416" 
d="M382 453l-15 185h-25l-64 -128l-66 128h-24l-15 -185h34l8 104l54 -104h13l56 106l9 -106h35zM161 606v32h-141v-32h53v-153h35v153h53z" />
    <glyph glyph-name="partialdiff" unicode="&#x2202;" horiz-adv-x="550" 
d="M511 0v453h-472v-453h472zM482 29h-182q-23 13 -37.5 32t-14.5 51q0 26 23.5 55.5t67.5 46.5l-241 170h384v-355zM257 29h-189v332l129 -271q8 -17 21.5 -33.5t38.5 -27.5z" />
    <glyph glyph-name="product" unicode="&#x220f;" horiz-adv-x="480" 
d="M445 448q0 45 -16 82t-44 64t-65 42t-80 15q-44 0 -81 -15t-65 -42t-43.5 -64t-15.5 -82t15.5 -82t43.5 -64t65 -42t81 -15q43 0 80 15t65 42t44 64t16 82zM399 448q0 -36 -12 -66t-33.5 -51t-50.5 -33t-63 -12q-35 0 -64 12t-51 33t-34 51t-12 66t12 66t34 51t51 33
t64 12q34 0 63 -12t50.5 -33t33.5 -51t12 -66zM337 497q0 18 -7 32t-18.5 23.5t-26.5 15t-30 5.5h-77v-250h48v98h29q31 0 56.5 20t25.5 56zM290 497q0 -16 -11 -25t-30 -9h-23v68h23q19 0 30 -9t11 -25z" />
    <glyph glyph-name="summation" unicode="&#x2211;" horiz-adv-x="550" 
d="M511 0v453h-472v-453h472zM482 29h-182q-23 13 -37.5 32t-14.5 51q0 26 23.5 55.5t67.5 46.5l-241 170h384v-355zM257 29h-189v332l129 -271q8 -17 21.5 -33.5t38.5 -27.5z" />
    <glyph glyph-name="minus" unicode="&#x2212;" horiz-adv-x="401" 
d="M344 240v66h-287v-66h287z" />
    <glyph glyph-name="fraction" unicode="&#x2215;" horiz-adv-x="605" 
d="M587 626l-44 37l-525 -650l44 -37z" />
    <glyph glyph-name="radical" unicode="&#x221a;" horiz-adv-x="559" 
d="M547 633v79h-133l-153 -371q-9 -21 -19 -45.5t-19.5 -49.5t-18.5 -48t-16 -42h-2q-5 14 -9 25.5t-9 23.5l-40 98h-100l-12 -87h56l92 -224h37l266 641h80z" />
    <glyph glyph-name="infinity" unicode="&#x221e;" horiz-adv-x="837" 
d="M762 0v453h-269v70q0 22 6 43.5t18 37.5t30 26t41 10q32 0 58.5 -8.5t40.5 -17.5l18 76q-20 11 -45.5 18.5t-61.5 7.5q-93 0 -144.5 -56t-51.5 -157v-50h-224v54q0 22 6 43.5t18 37.5t30 26t41 10q32 0 58.5 -8.5t40.5 -17.5l18 76q-20 11 -45.5 18.5t-61.5 7.5
q-93 0 -144.5 -56t-51.5 -157v-34h-77v-73h77v-380h91v380h224v-380h91v380h178v-380h91z" />
    <glyph glyph-name="integral" unicode="&#x222b;" horiz-adv-x="550" 
d="M511 0v453h-472v-453h472zM482 29h-182q-23 13 -37.5 32t-14.5 51q0 26 23.5 55.5t67.5 46.5l-241 170h384v-355zM257 29h-189v332l129 -271q8 -17 21.5 -33.5t38.5 -27.5z" />
    <glyph glyph-name="approxequal" unicode="&#x2248;" horiz-adv-x="455" 
d="M415 351l-16 75q-18 -20 -41 -32.5t-55 -12.5q-20 0 -37 7t-34 15q-16 8 -33 13.5t-39 5.5q-41 0 -69.5 -12.5t-50.5 -36.5l17 -74q19 20 41.5 32.5t53.5 12.5q18 0 35 -7t36 -15q16 -8 33.5 -13.5t39.5 -5.5q41 0 69.5 12t49.5 36zM415 179l-16 75q-18 -20 -41 -32.5
t-55 -12.5q-20 0 -37 7t-34 15q-16 8 -33 13.5t-39 5.5q-41 0 -69.5 -12.5t-50.5 -36.5l17 -74q19 20 41.5 32.5t53.5 12.5q18 0 35 -7t36 -15q16 -8 33.5 -13.5t39.5 -5.5q41 0 69.5 12t49.5 36z" />
    <glyph glyph-name="notequal" unicode="&#x2260;" horiz-adv-x="650" 
d="M682 701q-36 15 -77 15q-99 0 -151 -54.5t-52 -166.5v-42h-224v54q0 22 6 43.5t18 37.5t30 26t41 10q32 0 58.5 -8.5t40.5 -17.5l18 76q-20 11 -45.5 18.5t-61.5 7.5q-93 0 -144.5 -56t-51.5 -157v-34h-77v-73h77v-380h91v380h224v-380h91v380h116l15 73h-131v70
q0 22 6 43.5t18 37.5t30 26t41 10q20 0 40.5 -4t37.5 -12z" />
    <glyph glyph-name="lessequal" unicode="&#x2264;" horiz-adv-x="358" 
d="M279 241l-121 122l121 122l-59 58l-180 -180l180 -180zM294 0v78h-250v-78h250z" />
    <glyph glyph-name="greaterequal" unicode="&#x2265;" horiz-adv-x="358" 
d="M319 363l-180 180l-59 -58l121 -122l-121 -122l59 -58zM315 0v78h-250v-78h250z" />
    <glyph glyph-name="lozenge" unicode="&#x25ca;" horiz-adv-x="585" 
d="M510 277l-223 222l-222 -222l222 -222zM426 277l-139 -139l-138 139l138 138z" />
    <glyph glyph-name="apple" unicode="&#xf8ff;" horiz-adv-x="550" 
d="M511 0v453h-472v-453h472zM482 29h-182q-23 13 -37.5 32t-14.5 51q0 26 23.5 55.5t67.5 46.5l-241 170h384v-355zM257 29h-189v332l129 -271q8 -17 21.5 -33.5t38.5 -27.5z" />
    <glyph glyph-name="fi" unicode="&#xfb01;" horiz-adv-x="522" 
d="M447 0v453h-269v70q0 22 6 43.5t18 37.5t30 26t41 10q32 0 58.5 -8.5t40.5 -17.5l18 76q-20 11 -45.5 18.5t-61.5 7.5q-93 0 -144.5 -56t-51.5 -157v-50h-77v-73h77v-380h91v380h178v-380h91z" />
    <glyph glyph-name="fl" unicode="&#xfb02;" horiz-adv-x="570" 
d="M534 47q-22 4 -41.5 23.5t-19.5 51.5v549q-32 25 -69.5 35t-83.5 10q-50 0 -93 -16t-74 -47t-48.5 -76.5t-17.5 -104.5v-19h-77v-73h77v-380h91v380h85l16 73h-101v39q0 35 10 62.5t27.5 46.5t41 29t49.5 10q27 0 44.5 -2.5t31.5 -9.5v-518q0 -33 10 -55.5t24 -37
t29.5 -22t26.5 -10.5z" />
    <glyph glyph-name="NUL" horiz-adv-x="0" 
 />
    </font>
</defs>
</svg>
